<svg width="1512" height="982" viewBox="0 0 1512 982" fill="none" xmlns="http://www.w3.org/2000/svg">
<rect width="1512" height="982" fill="white"/>
<path d="M504.203 323.113V327H489.926V323.113H504.203ZM491.293 298.562V327H486.391V298.562H491.293ZM506.625 316.668V316.219C506.625 314.695 506.846 313.283 507.289 311.98C507.732 310.665 508.37 309.526 509.203 308.562C510.049 307.586 511.078 306.831 512.289 306.297C513.513 305.75 514.893 305.477 516.43 305.477C517.979 305.477 519.359 305.75 520.57 306.297C521.794 306.831 522.829 307.586 523.676 308.562C524.522 309.526 525.167 310.665 525.609 311.98C526.052 313.283 526.273 314.695 526.273 316.219V316.668C526.273 318.191 526.052 319.604 525.609 320.906C525.167 322.208 524.522 323.348 523.676 324.324C522.829 325.288 521.801 326.043 520.59 326.59C519.379 327.124 518.005 327.391 516.469 327.391C514.919 327.391 513.533 327.124 512.309 326.59C511.098 326.043 510.069 325.288 509.223 324.324C508.376 323.348 507.732 322.208 507.289 320.906C506.846 319.604 506.625 318.191 506.625 316.668ZM511.332 316.219V316.668C511.332 317.618 511.43 318.517 511.625 319.363C511.82 320.21 512.126 320.952 512.543 321.59C512.96 322.228 513.493 322.729 514.145 323.094C514.796 323.458 515.57 323.641 516.469 323.641C517.341 323.641 518.096 323.458 518.734 323.094C519.385 322.729 519.919 322.228 520.336 321.59C520.753 320.952 521.059 320.21 521.254 319.363C521.462 318.517 521.566 317.618 521.566 316.668V316.219C521.566 315.281 521.462 314.396 521.254 313.562C521.059 312.716 520.746 311.967 520.316 311.316C519.9 310.665 519.366 310.158 518.715 309.793C518.077 309.415 517.315 309.227 516.43 309.227C515.544 309.227 514.776 309.415 514.125 309.793C513.487 310.158 512.96 310.665 512.543 311.316C512.126 311.967 511.82 312.716 511.625 313.562C511.43 314.396 511.332 315.281 511.332 316.219ZM543.754 305.867H548.031V326.414C548.031 328.315 547.628 329.93 546.82 331.258C546.013 332.586 544.887 333.595 543.441 334.285C541.996 334.988 540.323 335.34 538.422 335.34C537.615 335.34 536.716 335.223 535.727 334.988C534.75 334.754 533.799 334.376 532.875 333.855C531.964 333.348 531.202 332.677 530.59 331.844L532.797 329.07C533.552 329.969 534.385 330.626 535.297 331.043C536.208 331.46 537.165 331.668 538.168 331.668C539.249 331.668 540.167 331.466 540.922 331.062C541.69 330.672 542.283 330.092 542.699 329.324C543.116 328.556 543.324 327.618 543.324 326.512V310.652L543.754 305.867ZM529.398 316.668V316.258C529.398 314.656 529.594 313.198 529.984 311.883C530.375 310.555 530.935 309.415 531.664 308.465C532.393 307.501 533.279 306.766 534.32 306.258C535.362 305.737 536.54 305.477 537.855 305.477C539.223 305.477 540.388 305.724 541.352 306.219C542.328 306.714 543.142 307.423 543.793 308.348C544.444 309.259 544.952 310.353 545.316 311.629C545.694 312.892 545.974 314.298 546.156 315.848V317.156C545.987 318.667 545.701 320.047 545.297 321.297C544.893 322.547 544.359 323.628 543.695 324.539C543.031 325.451 542.211 326.154 541.234 326.648C540.271 327.143 539.132 327.391 537.816 327.391C536.527 327.391 535.362 327.124 534.32 326.59C533.292 326.056 532.406 325.307 531.664 324.344C530.935 323.38 530.375 322.247 529.984 320.945C529.594 319.63 529.398 318.204 529.398 316.668ZM534.105 316.258V316.668C534.105 317.632 534.197 318.53 534.379 319.363C534.574 320.197 534.867 320.932 535.258 321.57C535.661 322.195 536.169 322.69 536.781 323.055C537.406 323.406 538.142 323.582 538.988 323.582C540.095 323.582 541 323.348 541.703 322.879C542.419 322.41 542.966 321.779 543.344 320.984C543.734 320.177 544.008 319.279 544.164 318.289V314.754C544.086 313.986 543.923 313.27 543.676 312.605C543.441 311.941 543.122 311.362 542.719 310.867C542.315 310.359 541.807 309.969 541.195 309.695C540.583 309.409 539.861 309.266 539.027 309.266C538.181 309.266 537.445 309.448 536.82 309.812C536.195 310.177 535.681 310.678 535.277 311.316C534.887 311.954 534.594 312.697 534.398 313.543C534.203 314.389 534.105 315.294 534.105 316.258ZM557.953 305.867V327H553.227V305.867H557.953ZM552.914 300.32C552.914 299.604 553.148 299.012 553.617 298.543C554.099 298.061 554.763 297.82 555.609 297.82C556.443 297.82 557.1 298.061 557.582 298.543C558.064 299.012 558.305 299.604 558.305 300.32C558.305 301.023 558.064 301.609 557.582 302.078C557.1 302.547 556.443 302.781 555.609 302.781C554.763 302.781 554.099 302.547 553.617 302.078C553.148 301.609 552.914 301.023 552.914 300.32ZM567.777 310.379V327H563.07V305.867H567.504L567.777 310.379ZM566.938 315.652L565.414 315.633C565.427 314.135 565.635 312.762 566.039 311.512C566.456 310.262 567.029 309.188 567.758 308.289C568.5 307.391 569.385 306.701 570.414 306.219C571.443 305.724 572.589 305.477 573.852 305.477C574.867 305.477 575.785 305.62 576.605 305.906C577.439 306.18 578.148 306.629 578.734 307.254C579.333 307.879 579.789 308.693 580.102 309.695C580.414 310.685 580.57 311.902 580.57 313.348V327H575.844V313.328C575.844 312.312 575.694 311.512 575.395 310.926C575.108 310.327 574.685 309.904 574.125 309.656C573.578 309.396 572.895 309.266 572.074 309.266C571.267 309.266 570.544 309.435 569.906 309.773C569.268 310.112 568.728 310.574 568.285 311.16C567.855 311.746 567.523 312.423 567.289 313.191C567.055 313.96 566.938 314.78 566.938 315.652ZM607.191 321.277C607.191 320.809 607.074 320.385 606.84 320.008C606.605 319.617 606.156 319.266 605.492 318.953C604.841 318.641 603.878 318.354 602.602 318.094C601.482 317.846 600.453 317.553 599.516 317.215C598.591 316.863 597.797 316.44 597.133 315.945C596.469 315.451 595.954 314.865 595.59 314.188C595.225 313.51 595.043 312.729 595.043 311.844C595.043 310.984 595.232 310.171 595.609 309.402C595.987 308.634 596.527 307.957 597.23 307.371C597.934 306.785 598.786 306.323 599.789 305.984C600.805 305.646 601.938 305.477 603.188 305.477C604.958 305.477 606.475 305.776 607.738 306.375C609.014 306.961 609.991 307.762 610.668 308.777C611.345 309.78 611.684 310.913 611.684 312.176H606.977C606.977 311.616 606.833 311.095 606.547 310.613C606.273 310.118 605.857 309.721 605.297 309.422C604.737 309.109 604.034 308.953 603.188 308.953C602.38 308.953 601.71 309.083 601.176 309.344C600.655 309.591 600.264 309.917 600.004 310.32C599.757 310.724 599.633 311.167 599.633 311.648C599.633 312 599.698 312.319 599.828 312.605C599.971 312.879 600.206 313.133 600.531 313.367C600.857 313.589 601.299 313.797 601.859 313.992C602.432 314.188 603.148 314.376 604.008 314.559C605.622 314.897 607.009 315.333 608.168 315.867C609.34 316.388 610.238 317.065 610.863 317.898C611.488 318.719 611.801 319.76 611.801 321.023C611.801 321.961 611.599 322.82 611.195 323.602C610.805 324.37 610.232 325.04 609.477 325.613C608.721 326.173 607.816 326.609 606.762 326.922C605.72 327.234 604.548 327.391 603.246 327.391C601.332 327.391 599.711 327.052 598.383 326.375C597.055 325.685 596.046 324.806 595.355 323.738C594.678 322.658 594.34 321.538 594.34 320.379H598.891C598.943 321.251 599.184 321.948 599.613 322.469C600.056 322.977 600.603 323.348 601.254 323.582C601.918 323.803 602.602 323.914 603.305 323.914C604.151 323.914 604.861 323.803 605.434 323.582C606.007 323.348 606.443 323.035 606.742 322.645C607.042 322.241 607.191 321.785 607.191 321.277ZM628.637 322.02V305.867H633.363V327H628.91L628.637 322.02ZM629.301 317.625L630.883 317.586C630.883 319.005 630.727 320.314 630.414 321.512C630.102 322.697 629.62 323.732 628.969 324.617C628.318 325.49 627.484 326.173 626.469 326.668C625.453 327.15 624.236 327.391 622.816 327.391C621.788 327.391 620.844 327.241 619.984 326.941C619.125 326.642 618.383 326.18 617.758 325.555C617.146 324.93 616.671 324.116 616.332 323.113C615.993 322.111 615.824 320.913 615.824 319.52V305.867H620.531V319.559C620.531 320.327 620.622 320.971 620.805 321.492C620.987 322 621.234 322.41 621.547 322.723C621.859 323.035 622.224 323.257 622.641 323.387C623.057 323.517 623.5 323.582 623.969 323.582C625.31 323.582 626.365 323.322 627.133 322.801C627.914 322.267 628.467 321.551 628.793 320.652C629.132 319.754 629.301 318.745 629.301 317.625ZM646.82 323.641C647.589 323.641 648.279 323.491 648.891 323.191C649.516 322.879 650.017 322.449 650.395 321.902C650.785 321.355 651 320.724 651.039 320.008H655.473C655.447 321.375 655.043 322.618 654.262 323.738C653.48 324.858 652.445 325.75 651.156 326.414C649.867 327.065 648.441 327.391 646.879 327.391C645.264 327.391 643.858 327.117 642.66 326.57C641.462 326.01 640.466 325.242 639.672 324.266C638.878 323.289 638.279 322.163 637.875 320.887C637.484 319.611 637.289 318.243 637.289 316.785V316.102C637.289 314.643 637.484 313.276 637.875 312C638.279 310.711 638.878 309.578 639.672 308.602C640.466 307.625 641.462 306.863 642.66 306.316C643.858 305.757 645.258 305.477 646.859 305.477C648.552 305.477 650.036 305.815 651.312 306.492C652.589 307.156 653.591 308.087 654.32 309.285C655.062 310.47 655.447 311.85 655.473 313.426H651.039C651 312.645 650.805 311.941 650.453 311.316C650.115 310.678 649.633 310.171 649.008 309.793C648.396 309.415 647.66 309.227 646.801 309.227C645.85 309.227 645.062 309.422 644.438 309.812C643.812 310.19 643.324 310.711 642.973 311.375C642.621 312.026 642.367 312.762 642.211 313.582C642.068 314.389 641.996 315.229 641.996 316.102V316.785C641.996 317.658 642.068 318.504 642.211 319.324C642.354 320.145 642.602 320.88 642.953 321.531C643.318 322.169 643.812 322.684 644.438 323.074C645.062 323.452 645.857 323.641 646.82 323.641ZM667.719 323.641C668.487 323.641 669.177 323.491 669.789 323.191C670.414 322.879 670.915 322.449 671.293 321.902C671.684 321.355 671.898 320.724 671.938 320.008H676.371C676.345 321.375 675.941 322.618 675.16 323.738C674.379 324.858 673.344 325.75 672.055 326.414C670.766 327.065 669.34 327.391 667.777 327.391C666.163 327.391 664.757 327.117 663.559 326.57C662.361 326.01 661.365 325.242 660.57 324.266C659.776 323.289 659.177 322.163 658.773 320.887C658.383 319.611 658.188 318.243 658.188 316.785V316.102C658.188 314.643 658.383 313.276 658.773 312C659.177 310.711 659.776 309.578 660.57 308.602C661.365 307.625 662.361 306.863 663.559 306.316C664.757 305.757 666.156 305.477 667.758 305.477C669.451 305.477 670.935 305.815 672.211 306.492C673.487 307.156 674.49 308.087 675.219 309.285C675.961 310.47 676.345 311.85 676.371 313.426H671.938C671.898 312.645 671.703 311.941 671.352 311.316C671.013 310.678 670.531 310.171 669.906 309.793C669.294 309.415 668.559 309.227 667.699 309.227C666.749 309.227 665.961 309.422 665.336 309.812C664.711 310.19 664.223 310.711 663.871 311.375C663.52 312.026 663.266 312.762 663.109 313.582C662.966 314.389 662.895 315.229 662.895 316.102V316.785C662.895 317.658 662.966 318.504 663.109 319.324C663.253 320.145 663.5 320.88 663.852 321.531C664.216 322.169 664.711 322.684 665.336 323.074C665.961 323.452 666.755 323.641 667.719 323.641ZM689.301 327.391C687.738 327.391 686.326 327.137 685.062 326.629C683.812 326.108 682.745 325.385 681.859 324.461C680.987 323.536 680.316 322.449 679.848 321.199C679.379 319.949 679.145 318.602 679.145 317.156V316.375C679.145 314.721 679.385 313.224 679.867 311.883C680.349 310.542 681.02 309.396 681.879 308.445C682.738 307.482 683.754 306.746 684.926 306.238C686.098 305.73 687.367 305.477 688.734 305.477C690.245 305.477 691.566 305.73 692.699 306.238C693.832 306.746 694.77 307.462 695.512 308.387C696.267 309.298 696.827 310.385 697.191 311.648C697.569 312.911 697.758 314.305 697.758 315.828V317.84H681.43V314.461H693.109V314.09C693.083 313.243 692.914 312.449 692.602 311.707C692.302 310.965 691.84 310.366 691.215 309.91C690.59 309.454 689.757 309.227 688.715 309.227C687.934 309.227 687.237 309.396 686.625 309.734C686.026 310.06 685.525 310.535 685.121 311.16C684.717 311.785 684.405 312.54 684.184 313.426C683.975 314.298 683.871 315.281 683.871 316.375V317.156C683.871 318.081 683.995 318.94 684.242 319.734C684.503 320.516 684.88 321.199 685.375 321.785C685.87 322.371 686.469 322.833 687.172 323.172C687.875 323.497 688.676 323.66 689.574 323.66C690.707 323.66 691.716 323.432 692.602 322.977C693.487 322.521 694.255 321.876 694.906 321.043L697.387 323.445C696.931 324.109 696.339 324.747 695.609 325.359C694.88 325.958 693.988 326.447 692.934 326.824C691.892 327.202 690.681 327.391 689.301 327.391ZM713.285 321.277C713.285 320.809 713.168 320.385 712.934 320.008C712.699 319.617 712.25 319.266 711.586 318.953C710.935 318.641 709.971 318.354 708.695 318.094C707.576 317.846 706.547 317.553 705.609 317.215C704.685 316.863 703.891 316.44 703.227 315.945C702.562 315.451 702.048 314.865 701.684 314.188C701.319 313.51 701.137 312.729 701.137 311.844C701.137 310.984 701.326 310.171 701.703 309.402C702.081 308.634 702.621 307.957 703.324 307.371C704.027 306.785 704.88 306.323 705.883 305.984C706.898 305.646 708.031 305.477 709.281 305.477C711.052 305.477 712.569 305.776 713.832 306.375C715.108 306.961 716.085 307.762 716.762 308.777C717.439 309.78 717.777 310.913 717.777 312.176H713.07C713.07 311.616 712.927 311.095 712.641 310.613C712.367 310.118 711.951 309.721 711.391 309.422C710.831 309.109 710.128 308.953 709.281 308.953C708.474 308.953 707.803 309.083 707.27 309.344C706.749 309.591 706.358 309.917 706.098 310.32C705.85 310.724 705.727 311.167 705.727 311.648C705.727 312 705.792 312.319 705.922 312.605C706.065 312.879 706.299 313.133 706.625 313.367C706.951 313.589 707.393 313.797 707.953 313.992C708.526 314.188 709.242 314.376 710.102 314.559C711.716 314.897 713.103 315.333 714.262 315.867C715.434 316.388 716.332 317.065 716.957 317.898C717.582 318.719 717.895 319.76 717.895 321.023C717.895 321.961 717.693 322.82 717.289 323.602C716.898 324.37 716.326 325.04 715.57 325.613C714.815 326.173 713.91 326.609 712.855 326.922C711.814 327.234 710.642 327.391 709.34 327.391C707.426 327.391 705.805 327.052 704.477 326.375C703.148 325.685 702.139 324.806 701.449 323.738C700.772 322.658 700.434 321.538 700.434 320.379H704.984C705.036 321.251 705.277 321.948 705.707 322.469C706.15 322.977 706.697 323.348 707.348 323.582C708.012 323.803 708.695 323.914 709.398 323.914C710.245 323.914 710.954 323.803 711.527 323.582C712.1 323.348 712.536 323.035 712.836 322.645C713.135 322.241 713.285 321.785 713.285 321.277ZM733.871 321.277C733.871 320.809 733.754 320.385 733.52 320.008C733.285 319.617 732.836 319.266 732.172 318.953C731.521 318.641 730.557 318.354 729.281 318.094C728.161 317.846 727.133 317.553 726.195 317.215C725.271 316.863 724.477 316.44 723.812 315.945C723.148 315.451 722.634 314.865 722.27 314.188C721.905 313.51 721.723 312.729 721.723 311.844C721.723 310.984 721.911 310.171 722.289 309.402C722.667 308.634 723.207 307.957 723.91 307.371C724.613 306.785 725.466 306.323 726.469 305.984C727.484 305.646 728.617 305.477 729.867 305.477C731.638 305.477 733.155 305.776 734.418 306.375C735.694 306.961 736.671 307.762 737.348 308.777C738.025 309.78 738.363 310.913 738.363 312.176H733.656C733.656 311.616 733.513 311.095 733.227 310.613C732.953 310.118 732.536 309.721 731.977 309.422C731.417 309.109 730.714 308.953 729.867 308.953C729.06 308.953 728.389 309.083 727.855 309.344C727.335 309.591 726.944 309.917 726.684 310.32C726.436 310.724 726.312 311.167 726.312 311.648C726.312 312 726.378 312.319 726.508 312.605C726.651 312.879 726.885 313.133 727.211 313.367C727.536 313.589 727.979 313.797 728.539 313.992C729.112 314.188 729.828 314.376 730.688 314.559C732.302 314.897 733.689 315.333 734.848 315.867C736.02 316.388 736.918 317.065 737.543 317.898C738.168 318.719 738.48 319.76 738.48 321.023C738.48 321.961 738.279 322.82 737.875 323.602C737.484 324.37 736.911 325.04 736.156 325.613C735.401 326.173 734.496 326.609 733.441 326.922C732.4 327.234 731.228 327.391 729.926 327.391C728.012 327.391 726.391 327.052 725.062 326.375C723.734 325.685 722.725 324.806 722.035 323.738C721.358 322.658 721.02 321.538 721.02 320.379H725.57C725.622 321.251 725.863 321.948 726.293 322.469C726.736 322.977 727.283 323.348 727.934 323.582C728.598 323.803 729.281 323.914 729.984 323.914C730.831 323.914 731.54 323.803 732.113 323.582C732.686 323.348 733.122 323.035 733.422 322.645C733.721 322.241 733.871 321.785 733.871 321.277ZM748.969 327H744.262V303.836C744.262 302.26 744.555 300.939 745.141 299.871C745.74 298.79 746.592 297.977 747.699 297.43C748.806 296.87 750.115 296.59 751.625 296.59C752.094 296.59 752.556 296.622 753.012 296.688C753.467 296.74 753.91 296.824 754.34 296.941L754.223 300.574C753.962 300.509 753.676 300.464 753.363 300.438C753.064 300.411 752.738 300.398 752.387 300.398C751.671 300.398 751.052 300.535 750.531 300.809C750.023 301.069 749.633 301.453 749.359 301.961C749.099 302.469 748.969 303.094 748.969 303.836V327ZM753.324 305.867V309.305H741.02V305.867H753.324ZM769.457 322.02V305.867H774.184V327H769.73L769.457 322.02ZM770.121 317.625L771.703 317.586C771.703 319.005 771.547 320.314 771.234 321.512C770.922 322.697 770.44 323.732 769.789 324.617C769.138 325.49 768.305 326.173 767.289 326.668C766.273 327.15 765.056 327.391 763.637 327.391C762.608 327.391 761.664 327.241 760.805 326.941C759.945 326.642 759.203 326.18 758.578 325.555C757.966 324.93 757.491 324.116 757.152 323.113C756.814 322.111 756.645 320.913 756.645 319.52V305.867H761.352V319.559C761.352 320.327 761.443 320.971 761.625 321.492C761.807 322 762.055 322.41 762.367 322.723C762.68 323.035 763.044 323.257 763.461 323.387C763.878 323.517 764.32 323.582 764.789 323.582C766.13 323.582 767.185 323.322 767.953 322.801C768.734 322.267 769.288 321.551 769.613 320.652C769.952 319.754 770.121 318.745 770.121 317.625ZM784.047 297V327H779.32V297H784.047ZM794.242 297V327H789.516V297H794.242ZM805.531 324.695L811.273 305.867H816.312L807.836 330.223C807.641 330.743 807.387 331.31 807.074 331.922C806.762 332.534 806.352 333.113 805.844 333.66C805.349 334.22 804.73 334.669 803.988 335.008C803.246 335.359 802.348 335.535 801.293 335.535C800.876 335.535 800.473 335.496 800.082 335.418C799.704 335.353 799.346 335.281 799.008 335.203L798.988 331.609C799.118 331.622 799.275 331.635 799.457 331.648C799.652 331.661 799.809 331.668 799.926 331.668C800.707 331.668 801.358 331.57 801.879 331.375C802.4 331.193 802.823 330.893 803.148 330.477C803.487 330.06 803.773 329.5 804.008 328.797L805.531 324.695ZM802.289 305.867L807.309 321.688L808.148 326.648L804.887 327.488L797.211 305.867H802.289ZM837.602 323.641C838.37 323.641 839.06 323.491 839.672 323.191C840.297 322.879 840.798 322.449 841.176 321.902C841.566 321.355 841.781 320.724 841.82 320.008H846.254C846.228 321.375 845.824 322.618 845.043 323.738C844.262 324.858 843.227 325.75 841.938 326.414C840.648 327.065 839.223 327.391 837.66 327.391C836.046 327.391 834.639 327.117 833.441 326.57C832.243 326.01 831.247 325.242 830.453 324.266C829.659 323.289 829.06 322.163 828.656 320.887C828.266 319.611 828.07 318.243 828.07 316.785V316.102C828.07 314.643 828.266 313.276 828.656 312C829.06 310.711 829.659 309.578 830.453 308.602C831.247 307.625 832.243 306.863 833.441 306.316C834.639 305.757 836.039 305.477 837.641 305.477C839.333 305.477 840.818 305.815 842.094 306.492C843.37 307.156 844.372 308.087 845.102 309.285C845.844 310.47 846.228 311.85 846.254 313.426H841.82C841.781 312.645 841.586 311.941 841.234 311.316C840.896 310.678 840.414 310.171 839.789 309.793C839.177 309.415 838.441 309.227 837.582 309.227C836.632 309.227 835.844 309.422 835.219 309.812C834.594 310.19 834.105 310.711 833.754 311.375C833.402 312.026 833.148 312.762 832.992 313.582C832.849 314.389 832.777 315.229 832.777 316.102V316.785C832.777 317.658 832.849 318.504 832.992 319.324C833.135 320.145 833.383 320.88 833.734 321.531C834.099 322.169 834.594 322.684 835.219 323.074C835.844 323.452 836.638 323.641 837.602 323.641ZM848.969 316.668V316.219C848.969 314.695 849.19 313.283 849.633 311.98C850.076 310.665 850.714 309.526 851.547 308.562C852.393 307.586 853.422 306.831 854.633 306.297C855.857 305.75 857.237 305.477 858.773 305.477C860.323 305.477 861.703 305.75 862.914 306.297C864.138 306.831 865.173 307.586 866.02 308.562C866.866 309.526 867.51 310.665 867.953 311.98C868.396 313.283 868.617 314.695 868.617 316.219V316.668C868.617 318.191 868.396 319.604 867.953 320.906C867.51 322.208 866.866 323.348 866.02 324.324C865.173 325.288 864.145 326.043 862.934 326.59C861.723 327.124 860.349 327.391 858.812 327.391C857.263 327.391 855.876 327.124 854.652 326.59C853.441 326.043 852.413 325.288 851.566 324.324C850.72 323.348 850.076 322.208 849.633 320.906C849.19 319.604 848.969 318.191 848.969 316.668ZM853.676 316.219V316.668C853.676 317.618 853.773 318.517 853.969 319.363C854.164 320.21 854.47 320.952 854.887 321.59C855.303 322.228 855.837 322.729 856.488 323.094C857.139 323.458 857.914 323.641 858.812 323.641C859.685 323.641 860.44 323.458 861.078 323.094C861.729 322.729 862.263 322.228 862.68 321.59C863.096 320.952 863.402 320.21 863.598 319.363C863.806 318.517 863.91 317.618 863.91 316.668V316.219C863.91 315.281 863.806 314.396 863.598 313.562C863.402 312.716 863.09 311.967 862.66 311.316C862.243 310.665 861.71 310.158 861.059 309.793C860.421 309.415 859.659 309.227 858.773 309.227C857.888 309.227 857.12 309.415 856.469 309.793C855.831 310.158 855.303 310.665 854.887 311.316C854.47 311.967 854.164 312.716 853.969 313.562C853.773 314.396 853.676 315.281 853.676 316.219ZM877.27 310.164V327H872.562V305.867H876.996L877.27 310.164ZM876.508 315.652L874.906 315.633C874.906 314.174 875.089 312.827 875.453 311.59C875.818 310.353 876.352 309.279 877.055 308.367C877.758 307.443 878.63 306.733 879.672 306.238C880.727 305.73 881.944 305.477 883.324 305.477C884.288 305.477 885.167 305.62 885.961 305.906C886.768 306.18 887.465 306.616 888.051 307.215C888.65 307.814 889.105 308.582 889.418 309.52C889.743 310.457 889.906 311.59 889.906 312.918V327H885.199V313.328C885.199 312.299 885.043 311.492 884.73 310.906C884.431 310.32 883.995 309.904 883.422 309.656C882.862 309.396 882.191 309.266 881.41 309.266C880.525 309.266 879.77 309.435 879.145 309.773C878.533 310.112 878.031 310.574 877.641 311.16C877.25 311.746 876.964 312.423 876.781 313.191C876.599 313.96 876.508 314.78 876.508 315.652ZM889.613 314.402L887.406 314.891C887.406 313.615 887.582 312.41 887.934 311.277C888.298 310.132 888.826 309.129 889.516 308.27C890.219 307.397 891.085 306.714 892.113 306.219C893.142 305.724 894.32 305.477 895.648 305.477C896.729 305.477 897.693 305.626 898.539 305.926C899.398 306.212 900.128 306.668 900.727 307.293C901.326 307.918 901.781 308.732 902.094 309.734C902.406 310.724 902.562 311.922 902.562 313.328V327H897.836V313.309C897.836 312.241 897.68 311.414 897.367 310.828C897.068 310.242 896.638 309.839 896.078 309.617C895.518 309.383 894.848 309.266 894.066 309.266C893.337 309.266 892.693 309.402 892.133 309.676C891.586 309.936 891.124 310.307 890.746 310.789C890.368 311.258 890.082 311.798 889.887 312.41C889.704 313.022 889.613 313.686 889.613 314.402ZM912.133 309.93V335.125H907.426V305.867H911.762L912.133 309.93ZM925.902 316.238V316.648C925.902 318.185 925.72 319.611 925.355 320.926C925.004 322.228 924.477 323.367 923.773 324.344C923.083 325.307 922.23 326.056 921.215 326.59C920.199 327.124 919.027 327.391 917.699 327.391C916.384 327.391 915.232 327.15 914.242 326.668C913.266 326.173 912.439 325.477 911.762 324.578C911.085 323.68 910.538 322.625 910.121 321.414C909.717 320.19 909.431 318.849 909.262 317.391V315.809C909.431 314.259 909.717 312.853 910.121 311.59C910.538 310.327 911.085 309.24 911.762 308.328C912.439 307.417 913.266 306.714 914.242 306.219C915.219 305.724 916.358 305.477 917.66 305.477C918.988 305.477 920.167 305.737 921.195 306.258C922.224 306.766 923.09 307.495 923.793 308.445C924.496 309.383 925.023 310.516 925.375 311.844C925.727 313.159 925.902 314.624 925.902 316.238ZM921.195 316.648V316.238C921.195 315.262 921.104 314.357 920.922 313.523C920.74 312.677 920.453 311.935 920.062 311.297C919.672 310.659 919.171 310.164 918.559 309.812C917.96 309.448 917.237 309.266 916.391 309.266C915.557 309.266 914.841 309.409 914.242 309.695C913.643 309.969 913.142 310.353 912.738 310.848C912.335 311.342 912.022 311.922 911.801 312.586C911.579 313.237 911.423 313.947 911.332 314.715V318.504C911.488 319.441 911.755 320.301 912.133 321.082C912.51 321.863 913.044 322.488 913.734 322.957C914.438 323.413 915.336 323.641 916.43 323.641C917.276 323.641 917.999 323.458 918.598 323.094C919.197 322.729 919.685 322.228 920.062 321.59C920.453 320.939 920.74 320.19 920.922 319.344C921.104 318.497 921.195 317.599 921.195 316.648ZM934.945 297V327H930.219V297H934.945ZM949.418 327.391C947.855 327.391 946.443 327.137 945.18 326.629C943.93 326.108 942.862 325.385 941.977 324.461C941.104 323.536 940.434 322.449 939.965 321.199C939.496 319.949 939.262 318.602 939.262 317.156V316.375C939.262 314.721 939.503 313.224 939.984 311.883C940.466 310.542 941.137 309.396 941.996 308.445C942.855 307.482 943.871 306.746 945.043 306.238C946.215 305.73 947.484 305.477 948.852 305.477C950.362 305.477 951.684 305.73 952.816 306.238C953.949 306.746 954.887 307.462 955.629 308.387C956.384 309.298 956.944 310.385 957.309 311.648C957.686 312.911 957.875 314.305 957.875 315.828V317.84H941.547V314.461H953.227V314.09C953.201 313.243 953.031 312.449 952.719 311.707C952.419 310.965 951.957 310.366 951.332 309.91C950.707 309.454 949.874 309.227 948.832 309.227C948.051 309.227 947.354 309.396 946.742 309.734C946.143 310.06 945.642 310.535 945.238 311.16C944.835 311.785 944.522 312.54 944.301 313.426C944.092 314.298 943.988 315.281 943.988 316.375V317.156C943.988 318.081 944.112 318.94 944.359 319.734C944.62 320.516 944.997 321.199 945.492 321.785C945.987 322.371 946.586 322.833 947.289 323.172C947.992 323.497 948.793 323.66 949.691 323.66C950.824 323.66 951.833 323.432 952.719 322.977C953.604 322.521 954.372 321.876 955.023 321.043L957.504 323.445C957.048 324.109 956.456 324.747 955.727 325.359C954.997 325.958 954.105 326.447 953.051 326.824C952.009 327.202 950.798 327.391 949.418 327.391ZM971.234 305.867V309.305H959.32V305.867H971.234ZM962.758 300.691H967.465V321.16C967.465 321.811 967.556 322.312 967.738 322.664C967.934 323.003 968.201 323.23 968.539 323.348C968.878 323.465 969.275 323.523 969.73 323.523C970.056 323.523 970.368 323.504 970.668 323.465C970.967 323.426 971.208 323.387 971.391 323.348L971.41 326.941C971.02 327.059 970.564 327.163 970.043 327.254C969.535 327.345 968.949 327.391 968.285 327.391C967.204 327.391 966.247 327.202 965.414 326.824C964.581 326.434 963.93 325.802 963.461 324.93C962.992 324.057 962.758 322.898 962.758 321.453V300.691ZM984.184 327.391C982.621 327.391 981.208 327.137 979.945 326.629C978.695 326.108 977.628 325.385 976.742 324.461C975.87 323.536 975.199 322.449 974.73 321.199C974.262 319.949 974.027 318.602 974.027 317.156V316.375C974.027 314.721 974.268 313.224 974.75 311.883C975.232 310.542 975.902 309.396 976.762 308.445C977.621 307.482 978.637 306.746 979.809 306.238C980.98 305.73 982.25 305.477 983.617 305.477C985.128 305.477 986.449 305.73 987.582 306.238C988.715 306.746 989.652 307.462 990.395 308.387C991.15 309.298 991.71 310.385 992.074 311.648C992.452 312.911 992.641 314.305 992.641 315.828V317.84H976.312V314.461H987.992V314.09C987.966 313.243 987.797 312.449 987.484 311.707C987.185 310.965 986.723 310.366 986.098 309.91C985.473 309.454 984.639 309.227 983.598 309.227C982.816 309.227 982.12 309.396 981.508 309.734C980.909 310.06 980.408 310.535 980.004 311.16C979.6 311.785 979.288 312.54 979.066 313.426C978.858 314.298 978.754 315.281 978.754 316.375V317.156C978.754 318.081 978.878 318.94 979.125 319.734C979.385 320.516 979.763 321.199 980.258 321.785C980.753 322.371 981.352 322.833 982.055 323.172C982.758 323.497 983.559 323.66 984.457 323.66C985.59 323.66 986.599 323.432 987.484 322.977C988.37 322.521 989.138 321.876 989.789 321.043L992.27 323.445C991.814 324.109 991.221 324.747 990.492 325.359C989.763 325.958 988.871 326.447 987.816 326.824C986.775 327.202 985.564 327.391 984.184 327.391ZM1009.2 322.625V297H1013.93V327H1009.65L1009.2 322.625ZM995.453 316.668V316.258C995.453 314.656 995.642 313.198 996.02 311.883C996.397 310.555 996.944 309.415 997.66 308.465C998.376 307.501 999.249 306.766 1000.28 306.258C1001.31 305.737 1002.46 305.477 1003.75 305.477C1005.03 305.477 1006.15 305.724 1007.11 306.219C1008.08 306.714 1008.9 307.423 1009.57 308.348C1010.25 309.259 1010.79 310.353 1011.2 311.629C1011.6 312.892 1011.89 314.298 1012.05 315.848V317.156C1011.89 318.667 1011.6 320.047 1011.2 321.297C1010.79 322.547 1010.25 323.628 1009.57 324.539C1008.9 325.451 1008.07 326.154 1007.09 326.648C1006.13 327.143 1005 327.391 1003.71 327.391C1002.44 327.391 1001.29 327.124 1000.26 326.59C999.242 326.056 998.376 325.307 997.66 324.344C996.944 323.38 996.397 322.247 996.02 320.945C995.642 319.63 995.453 318.204 995.453 316.668ZM1000.16 316.258V316.668C1000.16 317.632 1000.24 318.53 1000.41 319.363C1000.6 320.197 1000.88 320.932 1001.25 321.57C1001.63 322.195 1002.12 322.69 1002.72 323.055C1003.33 323.406 1004.06 323.582 1004.91 323.582C1005.97 323.582 1006.85 323.348 1007.54 322.879C1008.23 322.41 1008.77 321.779 1009.16 320.984C1009.57 320.177 1009.84 319.279 1009.98 318.289V314.754C1009.91 313.986 1009.74 313.27 1009.5 312.605C1009.26 311.941 1008.94 311.362 1008.54 310.867C1008.14 310.359 1007.63 309.969 1007.04 309.695C1006.45 309.409 1005.75 309.266 1004.95 309.266C1004.09 309.266 1003.36 309.448 1002.76 309.812C1002.16 310.177 1001.66 310.678 1001.27 311.316C1000.9 311.954 1000.62 312.697 1000.43 313.543C1000.25 314.389 1000.16 315.294 1000.16 316.258ZM1019.05 324.656C1019.05 323.927 1019.29 323.315 1019.79 322.82C1020.28 322.312 1020.95 322.059 1021.8 322.059C1022.66 322.059 1023.33 322.312 1023.81 322.82C1024.31 323.315 1024.55 323.927 1024.55 324.656C1024.55 325.385 1024.31 325.997 1023.81 326.492C1023.33 326.987 1022.66 327.234 1021.8 327.234C1020.95 327.234 1020.28 326.987 1019.79 326.492C1019.29 325.997 1019.05 325.385 1019.05 324.656Z" fill="#3D454E"/>
<path d="M212.188 382.25L218.094 393.672L224.016 382.25H227.438L219.594 396.5V405H216.578V396.5L208.734 382.25H212.188ZM228.125 396.734V396.375C228.125 395.156 228.302 394.026 228.656 392.984C229.01 391.932 229.521 391.021 230.188 390.25C230.854 389.469 231.661 388.865 232.609 388.438C233.557 388 234.62 387.781 235.797 387.781C236.984 387.781 238.052 388 239 388.438C239.958 388.865 240.771 389.469 241.438 390.25C242.115 391.021 242.63 391.932 242.984 392.984C243.339 394.026 243.516 395.156 243.516 396.375V396.734C243.516 397.953 243.339 399.083 242.984 400.125C242.63 401.167 242.115 402.078 241.438 402.859C240.771 403.63 239.964 404.234 239.016 404.672C238.078 405.099 237.016 405.312 235.828 405.312C234.641 405.312 233.573 405.099 232.625 404.672C231.677 404.234 230.865 403.63 230.188 402.859C229.521 402.078 229.01 401.167 228.656 400.125C228.302 399.083 228.125 397.953 228.125 396.734ZM231.016 396.375V396.734C231.016 397.578 231.115 398.375 231.312 399.125C231.51 399.865 231.807 400.521 232.203 401.094C232.609 401.667 233.115 402.12 233.719 402.453C234.323 402.776 235.026 402.938 235.828 402.938C236.62 402.938 237.312 402.776 237.906 402.453C238.51 402.12 239.01 401.667 239.406 401.094C239.802 400.521 240.099 399.865 240.297 399.125C240.505 398.375 240.609 397.578 240.609 396.734V396.375C240.609 395.542 240.505 394.755 240.297 394.016C240.099 393.266 239.797 392.604 239.391 392.031C238.995 391.448 238.495 390.99 237.891 390.656C237.297 390.323 236.599 390.156 235.797 390.156C235.005 390.156 234.307 390.323 233.703 390.656C233.109 390.99 232.609 391.448 232.203 392.031C231.807 392.604 231.51 393.266 231.312 394.016C231.115 394.755 231.016 395.542 231.016 396.375ZM257.484 401.094V388.094H260.391V405H257.625L257.484 401.094ZM258.031 397.531L259.234 397.5C259.234 398.625 259.115 399.667 258.875 400.625C258.646 401.573 258.271 402.396 257.75 403.094C257.229 403.792 256.547 404.339 255.703 404.734C254.859 405.12 253.833 405.312 252.625 405.312C251.802 405.312 251.047 405.193 250.359 404.953C249.682 404.714 249.099 404.344 248.609 403.844C248.12 403.344 247.74 402.693 247.469 401.891C247.208 401.089 247.078 400.125 247.078 399V388.094H249.969V399.031C249.969 399.792 250.052 400.422 250.219 400.922C250.396 401.411 250.63 401.802 250.922 402.094C251.224 402.375 251.557 402.573 251.922 402.688C252.297 402.802 252.682 402.859 253.078 402.859C254.307 402.859 255.281 402.625 256 402.156C256.719 401.677 257.234 401.036 257.547 400.234C257.87 399.422 258.031 398.521 258.031 397.531ZM279.5 402.938C280.188 402.938 280.823 402.797 281.406 402.516C281.99 402.234 282.469 401.849 282.844 401.359C283.219 400.859 283.432 400.292 283.484 399.656H286.234C286.182 400.656 285.844 401.589 285.219 402.453C284.604 403.307 283.797 404 282.797 404.531C281.797 405.052 280.698 405.312 279.5 405.312C278.229 405.312 277.12 405.089 276.172 404.641C275.234 404.193 274.453 403.578 273.828 402.797C273.214 402.016 272.75 401.12 272.438 400.109C272.135 399.089 271.984 398.01 271.984 396.875V396.219C271.984 395.083 272.135 394.01 272.438 393C272.75 391.979 273.214 391.078 273.828 390.297C274.453 389.516 275.234 388.901 276.172 388.453C277.12 388.005 278.229 387.781 279.5 387.781C280.823 387.781 281.979 388.052 282.969 388.594C283.958 389.125 284.734 389.854 285.297 390.781C285.87 391.698 286.182 392.74 286.234 393.906H283.484C283.432 393.208 283.234 392.578 282.891 392.016C282.557 391.453 282.099 391.005 281.516 390.672C280.943 390.328 280.271 390.156 279.5 390.156C278.615 390.156 277.87 390.333 277.266 390.688C276.672 391.031 276.198 391.5 275.844 392.094C275.5 392.677 275.25 393.328 275.094 394.047C274.948 394.755 274.875 395.479 274.875 396.219V396.875C274.875 397.615 274.948 398.344 275.094 399.062C275.24 399.781 275.484 400.432 275.828 401.016C276.182 401.599 276.656 402.068 277.25 402.422C277.854 402.766 278.604 402.938 279.5 402.938ZM299.453 402.109V393.406C299.453 392.74 299.318 392.161 299.047 391.672C298.786 391.172 298.391 390.786 297.859 390.516C297.328 390.245 296.672 390.109 295.891 390.109C295.161 390.109 294.521 390.234 293.969 390.484C293.427 390.734 293 391.062 292.688 391.469C292.385 391.875 292.234 392.312 292.234 392.781H289.344C289.344 392.177 289.5 391.578 289.812 390.984C290.125 390.391 290.573 389.854 291.156 389.375C291.75 388.885 292.458 388.5 293.281 388.219C294.115 387.927 295.042 387.781 296.062 387.781C297.292 387.781 298.375 387.99 299.312 388.406C300.26 388.823 301 389.453 301.531 390.297C302.073 391.13 302.344 392.177 302.344 393.438V401.312C302.344 401.875 302.391 402.474 302.484 403.109C302.589 403.745 302.74 404.292 302.938 404.75V405H299.922C299.776 404.667 299.661 404.224 299.578 403.672C299.495 403.109 299.453 402.589 299.453 402.109ZM299.953 394.75L299.984 396.781H297.062C296.24 396.781 295.505 396.849 294.859 396.984C294.214 397.109 293.672 397.302 293.234 397.562C292.797 397.823 292.464 398.151 292.234 398.547C292.005 398.932 291.891 399.385 291.891 399.906C291.891 400.438 292.01 400.922 292.25 401.359C292.49 401.797 292.849 402.146 293.328 402.406C293.818 402.656 294.417 402.781 295.125 402.781C296.01 402.781 296.792 402.594 297.469 402.219C298.146 401.844 298.682 401.385 299.078 400.844C299.484 400.302 299.703 399.776 299.734 399.266L300.969 400.656C300.896 401.094 300.698 401.578 300.375 402.109C300.052 402.641 299.62 403.151 299.078 403.641C298.547 404.12 297.911 404.521 297.172 404.844C296.443 405.156 295.62 405.312 294.703 405.312C293.557 405.312 292.552 405.089 291.688 404.641C290.833 404.193 290.167 403.594 289.688 402.844C289.219 402.083 288.984 401.234 288.984 400.297C288.984 399.391 289.161 398.594 289.516 397.906C289.87 397.208 290.38 396.63 291.047 396.172C291.714 395.703 292.516 395.349 293.453 395.109C294.391 394.87 295.438 394.75 296.594 394.75H299.953ZM309.781 391.703V405H306.891V388.094H309.625L309.781 391.703ZM309.094 395.906L307.891 395.859C307.901 394.703 308.073 393.635 308.406 392.656C308.74 391.667 309.208 390.807 309.812 390.078C310.417 389.349 311.135 388.786 311.969 388.391C312.812 387.984 313.745 387.781 314.766 387.781C315.599 387.781 316.349 387.896 317.016 388.125C317.682 388.344 318.25 388.698 318.719 389.188C319.198 389.677 319.562 390.312 319.812 391.094C320.062 391.865 320.188 392.807 320.188 393.922V405H317.281V393.891C317.281 393.005 317.151 392.297 316.891 391.766C316.63 391.224 316.25 390.833 315.75 390.594C315.25 390.344 314.635 390.219 313.906 390.219C313.188 390.219 312.531 390.37 311.938 390.672C311.354 390.974 310.849 391.391 310.422 391.922C310.005 392.453 309.677 393.062 309.438 393.75C309.208 394.427 309.094 395.146 309.094 395.906ZM339.281 402.938C339.969 402.938 340.604 402.797 341.188 402.516C341.771 402.234 342.25 401.849 342.625 401.359C343 400.859 343.214 400.292 343.266 399.656H346.016C345.964 400.656 345.625 401.589 345 402.453C344.385 403.307 343.578 404 342.578 404.531C341.578 405.052 340.479 405.312 339.281 405.312C338.01 405.312 336.901 405.089 335.953 404.641C335.016 404.193 334.234 403.578 333.609 402.797C332.995 402.016 332.531 401.12 332.219 400.109C331.917 399.089 331.766 398.01 331.766 396.875V396.219C331.766 395.083 331.917 394.01 332.219 393C332.531 391.979 332.995 391.078 333.609 390.297C334.234 389.516 335.016 388.901 335.953 388.453C336.901 388.005 338.01 387.781 339.281 387.781C340.604 387.781 341.76 388.052 342.75 388.594C343.74 389.125 344.516 389.854 345.078 390.781C345.651 391.698 345.964 392.74 346.016 393.906H343.266C343.214 393.208 343.016 392.578 342.672 392.016C342.339 391.453 341.88 391.005 341.297 390.672C340.724 390.328 340.052 390.156 339.281 390.156C338.396 390.156 337.651 390.333 337.047 390.688C336.453 391.031 335.979 391.5 335.625 392.094C335.281 392.677 335.031 393.328 334.875 394.047C334.729 394.755 334.656 395.479 334.656 396.219V396.875C334.656 397.615 334.729 398.344 334.875 399.062C335.021 399.781 335.266 400.432 335.609 401.016C335.964 401.599 336.438 402.068 337.031 402.422C337.635 402.766 338.385 402.938 339.281 402.938ZM352.406 381V405H349.5V381H352.406ZM356.281 396.734V396.375C356.281 395.156 356.458 394.026 356.812 392.984C357.167 391.932 357.677 391.021 358.344 390.25C359.01 389.469 359.818 388.865 360.766 388.438C361.714 388 362.776 387.781 363.953 387.781C365.141 387.781 366.208 388 367.156 388.438C368.115 388.865 368.927 389.469 369.594 390.25C370.271 391.021 370.786 391.932 371.141 392.984C371.495 394.026 371.672 395.156 371.672 396.375V396.734C371.672 397.953 371.495 399.083 371.141 400.125C370.786 401.167 370.271 402.078 369.594 402.859C368.927 403.63 368.12 404.234 367.172 404.672C366.234 405.099 365.172 405.312 363.984 405.312C362.797 405.312 361.729 405.099 360.781 404.672C359.833 404.234 359.021 403.63 358.344 402.859C357.677 402.078 357.167 401.167 356.812 400.125C356.458 399.083 356.281 397.953 356.281 396.734ZM359.172 396.375V396.734C359.172 397.578 359.271 398.375 359.469 399.125C359.667 399.865 359.964 400.521 360.359 401.094C360.766 401.667 361.271 402.12 361.875 402.453C362.479 402.776 363.182 402.938 363.984 402.938C364.776 402.938 365.469 402.776 366.062 402.453C366.667 402.12 367.167 401.667 367.562 401.094C367.958 400.521 368.255 399.865 368.453 399.125C368.661 398.375 368.766 397.578 368.766 396.734V396.375C368.766 395.542 368.661 394.755 368.453 394.016C368.255 393.266 367.953 392.604 367.547 392.031C367.151 391.448 366.651 390.99 366.047 390.656C365.453 390.323 364.755 390.156 363.953 390.156C363.161 390.156 362.464 390.323 361.859 390.656C361.266 390.99 360.766 391.448 360.359 392.031C359.964 392.604 359.667 393.266 359.469 394.016C359.271 394.755 359.172 395.542 359.172 396.375ZM385.141 400.516C385.141 400.099 385.047 399.714 384.859 399.359C384.682 398.995 384.312 398.667 383.75 398.375C383.198 398.073 382.365 397.812 381.25 397.594C380.312 397.396 379.464 397.161 378.703 396.891C377.953 396.62 377.312 396.292 376.781 395.906C376.26 395.521 375.859 395.068 375.578 394.547C375.297 394.026 375.156 393.417 375.156 392.719C375.156 392.052 375.302 391.422 375.594 390.828C375.896 390.234 376.318 389.708 376.859 389.25C377.411 388.792 378.073 388.432 378.844 388.172C379.615 387.911 380.474 387.781 381.422 387.781C382.776 387.781 383.932 388.021 384.891 388.5C385.849 388.979 386.583 389.62 387.094 390.422C387.604 391.214 387.859 392.094 387.859 393.062H384.969C384.969 392.594 384.828 392.141 384.547 391.703C384.276 391.255 383.875 390.885 383.344 390.594C382.823 390.302 382.182 390.156 381.422 390.156C380.62 390.156 379.969 390.281 379.469 390.531C378.979 390.771 378.62 391.078 378.391 391.453C378.172 391.828 378.062 392.224 378.062 392.641C378.062 392.953 378.115 393.234 378.219 393.484C378.333 393.724 378.531 393.948 378.812 394.156C379.094 394.354 379.49 394.542 380 394.719C380.51 394.896 381.161 395.073 381.953 395.25C383.339 395.562 384.479 395.938 385.375 396.375C386.271 396.812 386.938 397.349 387.375 397.984C387.812 398.62 388.031 399.391 388.031 400.297C388.031 401.036 387.875 401.714 387.562 402.328C387.26 402.943 386.818 403.474 386.234 403.922C385.661 404.359 384.974 404.703 384.172 404.953C383.38 405.193 382.49 405.312 381.5 405.312C380.01 405.312 378.75 405.047 377.719 404.516C376.688 403.984 375.906 403.297 375.375 402.453C374.844 401.609 374.578 400.719 374.578 399.781H377.484C377.526 400.573 377.755 401.203 378.172 401.672C378.589 402.13 379.099 402.458 379.703 402.656C380.307 402.844 380.906 402.938 381.5 402.938C382.292 402.938 382.953 402.833 383.484 402.625C384.026 402.417 384.438 402.13 384.719 401.766C385 401.401 385.141 400.984 385.141 400.516ZM398.844 405.312C397.667 405.312 396.599 405.115 395.641 404.719C394.693 404.312 393.875 403.745 393.188 403.016C392.51 402.286 391.99 401.422 391.625 400.422C391.26 399.422 391.078 398.328 391.078 397.141V396.484C391.078 395.109 391.281 393.885 391.688 392.812C392.094 391.729 392.646 390.812 393.344 390.062C394.042 389.312 394.833 388.745 395.719 388.359C396.604 387.974 397.521 387.781 398.469 387.781C399.677 387.781 400.719 387.99 401.594 388.406C402.479 388.823 403.203 389.406 403.766 390.156C404.328 390.896 404.745 391.771 405.016 392.781C405.286 393.781 405.422 394.875 405.422 396.062V397.359H392.797V395H402.531V394.781C402.49 394.031 402.333 393.302 402.062 392.594C401.802 391.885 401.385 391.302 400.812 390.844C400.24 390.385 399.458 390.156 398.469 390.156C397.812 390.156 397.208 390.297 396.656 390.578C396.104 390.849 395.63 391.255 395.234 391.797C394.839 392.339 394.531 393 394.312 393.781C394.094 394.562 393.984 395.464 393.984 396.484V397.141C393.984 397.943 394.094 398.698 394.312 399.406C394.542 400.104 394.87 400.719 395.297 401.25C395.734 401.781 396.26 402.198 396.875 402.5C397.5 402.802 398.208 402.953 399 402.953C400.021 402.953 400.885 402.745 401.594 402.328C402.302 401.911 402.922 401.354 403.453 400.656L405.203 402.047C404.839 402.599 404.375 403.125 403.812 403.625C403.25 404.125 402.557 404.531 401.734 404.844C400.922 405.156 399.958 405.312 398.844 405.312ZM423.812 388.094V390.312H414.672V388.094H423.812ZM417.766 383.984H420.656V400.812C420.656 401.385 420.745 401.818 420.922 402.109C421.099 402.401 421.328 402.594 421.609 402.688C421.891 402.781 422.193 402.828 422.516 402.828C422.755 402.828 423.005 402.807 423.266 402.766C423.536 402.714 423.74 402.672 423.875 402.641L423.891 405C423.661 405.073 423.359 405.141 422.984 405.203C422.62 405.276 422.177 405.312 421.656 405.312C420.948 405.312 420.297 405.172 419.703 404.891C419.109 404.609 418.635 404.141 418.281 403.484C417.938 402.818 417.766 401.922 417.766 400.797V383.984ZM430.094 381V405H427.203V381H430.094ZM429.406 395.906L428.203 395.859C428.214 394.703 428.385 393.635 428.719 392.656C429.052 391.667 429.521 390.807 430.125 390.078C430.729 389.349 431.448 388.786 432.281 388.391C433.125 387.984 434.057 387.781 435.078 387.781C435.911 387.781 436.661 387.896 437.328 388.125C437.995 388.344 438.562 388.698 439.031 389.188C439.51 389.677 439.875 390.312 440.125 391.094C440.375 391.865 440.5 392.807 440.5 393.922V405H437.594V393.891C437.594 393.005 437.464 392.297 437.203 391.766C436.943 391.224 436.562 390.833 436.062 390.594C435.562 390.344 434.948 390.219 434.219 390.219C433.5 390.219 432.844 390.37 432.25 390.672C431.667 390.974 431.161 391.391 430.734 391.922C430.318 392.453 429.99 393.062 429.75 393.75C429.521 394.427 429.406 395.146 429.406 395.906ZM447.969 388.094V405H445.062V388.094H447.969ZM444.844 383.609C444.844 383.141 444.984 382.745 445.266 382.422C445.557 382.099 445.984 381.938 446.547 381.938C447.099 381.938 447.521 382.099 447.812 382.422C448.115 382.745 448.266 383.141 448.266 383.609C448.266 384.057 448.115 384.443 447.812 384.766C447.521 385.078 447.099 385.234 446.547 385.234C445.984 385.234 445.557 385.078 445.266 384.766C444.984 384.443 444.844 384.057 444.844 383.609ZM462.453 400.516C462.453 400.099 462.359 399.714 462.172 399.359C461.995 398.995 461.625 398.667 461.062 398.375C460.51 398.073 459.677 397.812 458.562 397.594C457.625 397.396 456.776 397.161 456.016 396.891C455.266 396.62 454.625 396.292 454.094 395.906C453.573 395.521 453.172 395.068 452.891 394.547C452.609 394.026 452.469 393.417 452.469 392.719C452.469 392.052 452.615 391.422 452.906 390.828C453.208 390.234 453.63 389.708 454.172 389.25C454.724 388.792 455.385 388.432 456.156 388.172C456.927 387.911 457.786 387.781 458.734 387.781C460.089 387.781 461.245 388.021 462.203 388.5C463.161 388.979 463.896 389.62 464.406 390.422C464.917 391.214 465.172 392.094 465.172 393.062H462.281C462.281 392.594 462.141 392.141 461.859 391.703C461.589 391.255 461.188 390.885 460.656 390.594C460.135 390.302 459.495 390.156 458.734 390.156C457.932 390.156 457.281 390.281 456.781 390.531C456.292 390.771 455.932 391.078 455.703 391.453C455.484 391.828 455.375 392.224 455.375 392.641C455.375 392.953 455.427 393.234 455.531 393.484C455.646 393.724 455.844 393.948 456.125 394.156C456.406 394.354 456.802 394.542 457.312 394.719C457.823 394.896 458.474 395.073 459.266 395.25C460.651 395.562 461.792 395.938 462.688 396.375C463.583 396.812 464.25 397.349 464.688 397.984C465.125 398.62 465.344 399.391 465.344 400.297C465.344 401.036 465.188 401.714 464.875 402.328C464.573 402.943 464.13 403.474 463.547 403.922C462.974 404.359 462.286 404.703 461.484 404.953C460.693 405.193 459.802 405.312 458.812 405.312C457.323 405.312 456.062 405.047 455.031 404.516C454 403.984 453.219 403.297 452.688 402.453C452.156 401.609 451.891 400.719 451.891 399.781H454.797C454.839 400.573 455.068 401.203 455.484 401.672C455.901 402.13 456.411 402.458 457.016 402.656C457.62 402.844 458.219 402.938 458.812 402.938C459.604 402.938 460.266 402.833 460.797 402.625C461.339 402.417 461.75 402.13 462.031 401.766C462.312 401.401 462.453 400.984 462.453 400.516ZM481.359 402L485.703 388.094H487.609L487.234 390.859L482.812 405H480.953L481.359 402ZM478.438 388.094L482.141 402.156L482.406 405H480.453L475.547 388.094H478.438ZM491.766 402.047L495.297 388.094H498.172L493.266 405H491.328L491.766 402.047ZM488.031 388.094L492.281 401.766L492.766 405H490.922L486.375 390.828L486 388.094H488.031ZM504.281 388.094V405H501.375V388.094H504.281ZM501.156 383.609C501.156 383.141 501.297 382.745 501.578 382.422C501.87 382.099 502.297 381.938 502.859 381.938C503.411 381.938 503.833 382.099 504.125 382.422C504.427 382.745 504.578 383.141 504.578 383.609C504.578 384.057 504.427 384.443 504.125 384.766C503.833 385.078 503.411 385.234 502.859 385.234C502.297 385.234 501.87 385.078 501.578 384.766C501.297 384.443 501.156 384.057 501.156 383.609ZM511.812 391.703V405H508.922V388.094H511.656L511.812 391.703ZM511.125 395.906L509.922 395.859C509.932 394.703 510.104 393.635 510.438 392.656C510.771 391.667 511.24 390.807 511.844 390.078C512.448 389.349 513.167 388.786 514 388.391C514.844 387.984 515.776 387.781 516.797 387.781C517.63 387.781 518.38 387.896 519.047 388.125C519.714 388.344 520.281 388.698 520.75 389.188C521.229 389.677 521.594 390.312 521.844 391.094C522.094 391.865 522.219 392.807 522.219 393.922V405H519.312V393.891C519.312 393.005 519.182 392.297 518.922 391.766C518.661 391.224 518.281 390.833 517.781 390.594C517.281 390.344 516.667 390.219 515.938 390.219C515.219 390.219 514.562 390.37 513.969 390.672C513.385 390.974 512.88 391.391 512.453 391.922C512.036 392.453 511.708 393.062 511.469 393.75C511.24 394.427 511.125 395.146 511.125 395.906ZM537.266 401.719V381H540.172V405H537.516L537.266 401.719ZM525.891 396.734V396.406C525.891 395.115 526.047 393.943 526.359 392.891C526.682 391.828 527.135 390.917 527.719 390.156C528.312 389.396 529.016 388.812 529.828 388.406C530.651 387.99 531.568 387.781 532.578 387.781C533.641 387.781 534.568 387.969 535.359 388.344C536.161 388.708 536.839 389.245 537.391 389.953C537.953 390.651 538.396 391.495 538.719 392.484C539.042 393.474 539.266 394.594 539.391 395.844V397.281C539.276 398.521 539.052 399.635 538.719 400.625C538.396 401.615 537.953 402.458 537.391 403.156C536.839 403.854 536.161 404.391 535.359 404.766C534.557 405.13 533.62 405.312 532.547 405.312C531.557 405.312 530.651 405.099 529.828 404.672C529.016 404.245 528.312 403.646 527.719 402.875C527.135 402.104 526.682 401.198 526.359 400.156C526.047 399.104 525.891 397.964 525.891 396.734ZM528.797 396.406V396.734C528.797 397.578 528.88 398.37 529.047 399.109C529.224 399.849 529.495 400.5 529.859 401.062C530.224 401.625 530.688 402.068 531.25 402.391C531.812 402.703 532.484 402.859 533.266 402.859C534.224 402.859 535.01 402.656 535.625 402.25C536.25 401.844 536.75 401.307 537.125 400.641C537.5 399.974 537.792 399.25 538 398.469V394.703C537.875 394.13 537.693 393.578 537.453 393.047C537.224 392.505 536.922 392.026 536.547 391.609C536.182 391.182 535.729 390.844 535.188 390.594C534.656 390.344 534.026 390.219 533.297 390.219C532.505 390.219 531.823 390.385 531.25 390.719C530.688 391.042 530.224 391.49 529.859 392.062C529.495 392.625 529.224 393.281 529.047 394.031C528.88 394.771 528.797 395.562 528.797 396.406ZM543.906 396.734V396.375C543.906 395.156 544.083 394.026 544.438 392.984C544.792 391.932 545.302 391.021 545.969 390.25C546.635 389.469 547.443 388.865 548.391 388.438C549.339 388 550.401 387.781 551.578 387.781C552.766 387.781 553.833 388 554.781 388.438C555.74 388.865 556.552 389.469 557.219 390.25C557.896 391.021 558.411 391.932 558.766 392.984C559.12 394.026 559.297 395.156 559.297 396.375V396.734C559.297 397.953 559.12 399.083 558.766 400.125C558.411 401.167 557.896 402.078 557.219 402.859C556.552 403.63 555.745 404.234 554.797 404.672C553.859 405.099 552.797 405.312 551.609 405.312C550.422 405.312 549.354 405.099 548.406 404.672C547.458 404.234 546.646 403.63 545.969 402.859C545.302 402.078 544.792 401.167 544.438 400.125C544.083 399.083 543.906 397.953 543.906 396.734ZM546.797 396.375V396.734C546.797 397.578 546.896 398.375 547.094 399.125C547.292 399.865 547.589 400.521 547.984 401.094C548.391 401.667 548.896 402.12 549.5 402.453C550.104 402.776 550.807 402.938 551.609 402.938C552.401 402.938 553.094 402.776 553.688 402.453C554.292 402.12 554.792 401.667 555.188 401.094C555.583 400.521 555.88 399.865 556.078 399.125C556.286 398.375 556.391 397.578 556.391 396.734V396.375C556.391 395.542 556.286 394.755 556.078 394.016C555.88 393.266 555.578 392.604 555.172 392.031C554.776 391.448 554.276 390.99 553.672 390.656C553.078 390.323 552.38 390.156 551.578 390.156C550.786 390.156 550.089 390.323 549.484 390.656C548.891 390.99 548.391 391.448 547.984 392.031C547.589 392.604 547.292 393.266 547.094 394.016C546.896 394.755 546.797 395.542 546.797 396.375ZM567.203 402L571.547 388.094H573.453L573.078 390.859L568.656 405H566.797L567.203 402ZM564.281 388.094L567.984 402.156L568.25 405H566.297L561.391 388.094H564.281ZM577.609 402.047L581.141 388.094H584.016L579.109 405H577.172L577.609 402.047ZM573.875 388.094L578.125 401.766L578.609 405H576.766L572.219 390.828L571.844 388.094H573.875ZM604.891 402.109V393.406C604.891 392.74 604.755 392.161 604.484 391.672C604.224 391.172 603.828 390.786 603.297 390.516C602.766 390.245 602.109 390.109 601.328 390.109C600.599 390.109 599.958 390.234 599.406 390.484C598.865 390.734 598.438 391.062 598.125 391.469C597.823 391.875 597.672 392.312 597.672 392.781H594.781C594.781 392.177 594.938 391.578 595.25 390.984C595.562 390.391 596.01 389.854 596.594 389.375C597.188 388.885 597.896 388.5 598.719 388.219C599.552 387.927 600.479 387.781 601.5 387.781C602.729 387.781 603.812 387.99 604.75 388.406C605.698 388.823 606.438 389.453 606.969 390.297C607.51 391.13 607.781 392.177 607.781 393.438V401.312C607.781 401.875 607.828 402.474 607.922 403.109C608.026 403.745 608.177 404.292 608.375 404.75V405H605.359C605.214 404.667 605.099 404.224 605.016 403.672C604.932 403.109 604.891 402.589 604.891 402.109ZM605.391 394.75L605.422 396.781H602.5C601.677 396.781 600.943 396.849 600.297 396.984C599.651 397.109 599.109 397.302 598.672 397.562C598.234 397.823 597.901 398.151 597.672 398.547C597.443 398.932 597.328 399.385 597.328 399.906C597.328 400.438 597.448 400.922 597.688 401.359C597.927 401.797 598.286 402.146 598.766 402.406C599.255 402.656 599.854 402.781 600.562 402.781C601.448 402.781 602.229 402.594 602.906 402.219C603.583 401.844 604.12 401.385 604.516 400.844C604.922 400.302 605.141 399.776 605.172 399.266L606.406 400.656C606.333 401.094 606.135 401.578 605.812 402.109C605.49 402.641 605.057 403.151 604.516 403.641C603.984 404.12 603.349 404.521 602.609 404.844C601.88 405.156 601.057 405.312 600.141 405.312C598.995 405.312 597.99 405.089 597.125 404.641C596.271 404.193 595.604 403.594 595.125 402.844C594.656 402.083 594.422 401.234 594.422 400.297C594.422 399.391 594.599 398.594 594.953 397.906C595.307 397.208 595.818 396.63 596.484 396.172C597.151 395.703 597.953 395.349 598.891 395.109C599.828 394.87 600.875 394.75 602.031 394.75H605.391ZM615.219 391.703V405H612.328V388.094H615.062L615.219 391.703ZM614.531 395.906L613.328 395.859C613.339 394.703 613.51 393.635 613.844 392.656C614.177 391.667 614.646 390.807 615.25 390.078C615.854 389.349 616.573 388.786 617.406 388.391C618.25 387.984 619.182 387.781 620.203 387.781C621.036 387.781 621.786 387.896 622.453 388.125C623.12 388.344 623.688 388.698 624.156 389.188C624.635 389.677 625 390.312 625.25 391.094C625.5 391.865 625.625 392.807 625.625 393.922V405H622.719V393.891C622.719 393.005 622.589 392.297 622.328 391.766C622.068 391.224 621.688 390.833 621.188 390.594C620.688 390.344 620.073 390.219 619.344 390.219C618.625 390.219 617.969 390.37 617.375 390.672C616.792 390.974 616.286 391.391 615.859 391.922C615.443 392.453 615.115 393.062 614.875 393.75C614.646 394.427 614.531 395.146 614.531 395.906ZM640.672 401.719V381H643.578V405H640.922L640.672 401.719ZM629.297 396.734V396.406C629.297 395.115 629.453 393.943 629.766 392.891C630.089 391.828 630.542 390.917 631.125 390.156C631.719 389.396 632.422 388.812 633.234 388.406C634.057 387.99 634.974 387.781 635.984 387.781C637.047 387.781 637.974 387.969 638.766 388.344C639.568 388.708 640.245 389.245 640.797 389.953C641.359 390.651 641.802 391.495 642.125 392.484C642.448 393.474 642.672 394.594 642.797 395.844V397.281C642.682 398.521 642.458 399.635 642.125 400.625C641.802 401.615 641.359 402.458 640.797 403.156C640.245 403.854 639.568 404.391 638.766 404.766C637.964 405.13 637.026 405.312 635.953 405.312C634.964 405.312 634.057 405.099 633.234 404.672C632.422 404.245 631.719 403.646 631.125 402.875C630.542 402.104 630.089 401.198 629.766 400.156C629.453 399.104 629.297 397.964 629.297 396.734ZM632.203 396.406V396.734C632.203 397.578 632.286 398.37 632.453 399.109C632.63 399.849 632.901 400.5 633.266 401.062C633.63 401.625 634.094 402.068 634.656 402.391C635.219 402.703 635.891 402.859 636.672 402.859C637.63 402.859 638.417 402.656 639.031 402.25C639.656 401.844 640.156 401.307 640.531 400.641C640.906 399.974 641.198 399.25 641.406 398.469V394.703C641.281 394.13 641.099 393.578 640.859 393.047C640.63 392.505 640.328 392.026 639.953 391.609C639.589 391.182 639.135 390.844 638.594 390.594C638.062 390.344 637.432 390.219 636.703 390.219C635.911 390.219 635.229 390.385 634.656 390.719C634.094 391.042 633.63 391.49 633.266 392.062C632.901 392.625 632.63 393.281 632.453 394.031C632.286 394.771 632.203 395.562 632.203 396.406ZM662.781 402.938C663.469 402.938 664.104 402.797 664.688 402.516C665.271 402.234 665.75 401.849 666.125 401.359C666.5 400.859 666.714 400.292 666.766 399.656H669.516C669.464 400.656 669.125 401.589 668.5 402.453C667.885 403.307 667.078 404 666.078 404.531C665.078 405.052 663.979 405.312 662.781 405.312C661.51 405.312 660.401 405.089 659.453 404.641C658.516 404.193 657.734 403.578 657.109 402.797C656.495 402.016 656.031 401.12 655.719 400.109C655.417 399.089 655.266 398.01 655.266 396.875V396.219C655.266 395.083 655.417 394.01 655.719 393C656.031 391.979 656.495 391.078 657.109 390.297C657.734 389.516 658.516 388.901 659.453 388.453C660.401 388.005 661.51 387.781 662.781 387.781C664.104 387.781 665.26 388.052 666.25 388.594C667.24 389.125 668.016 389.854 668.578 390.781C669.151 391.698 669.464 392.74 669.516 393.906H666.766C666.714 393.208 666.516 392.578 666.172 392.016C665.839 391.453 665.38 391.005 664.797 390.672C664.224 390.328 663.552 390.156 662.781 390.156C661.896 390.156 661.151 390.333 660.547 390.688C659.953 391.031 659.479 391.5 659.125 392.094C658.781 392.677 658.531 393.328 658.375 394.047C658.229 394.755 658.156 395.479 658.156 396.219V396.875C658.156 397.615 658.229 398.344 658.375 399.062C658.521 399.781 658.766 400.432 659.109 401.016C659.464 401.599 659.938 402.068 660.531 402.422C661.135 402.766 661.885 402.938 662.781 402.938ZM672 396.734V396.375C672 395.156 672.177 394.026 672.531 392.984C672.885 391.932 673.396 391.021 674.062 390.25C674.729 389.469 675.536 388.865 676.484 388.438C677.432 388 678.495 387.781 679.672 387.781C680.859 387.781 681.927 388 682.875 388.438C683.833 388.865 684.646 389.469 685.312 390.25C685.99 391.021 686.505 391.932 686.859 392.984C687.214 394.026 687.391 395.156 687.391 396.375V396.734C687.391 397.953 687.214 399.083 686.859 400.125C686.505 401.167 685.99 402.078 685.312 402.859C684.646 403.63 683.839 404.234 682.891 404.672C681.953 405.099 680.891 405.312 679.703 405.312C678.516 405.312 677.448 405.099 676.5 404.672C675.552 404.234 674.74 403.63 674.062 402.859C673.396 402.078 672.885 401.167 672.531 400.125C672.177 399.083 672 397.953 672 396.734ZM674.891 396.375V396.734C674.891 397.578 674.99 398.375 675.188 399.125C675.385 399.865 675.682 400.521 676.078 401.094C676.484 401.667 676.99 402.12 677.594 402.453C678.198 402.776 678.901 402.938 679.703 402.938C680.495 402.938 681.188 402.776 681.781 402.453C682.385 402.12 682.885 401.667 683.281 401.094C683.677 400.521 683.974 399.865 684.172 399.125C684.38 398.375 684.484 397.578 684.484 396.734V396.375C684.484 395.542 684.38 394.755 684.172 394.016C683.974 393.266 683.672 392.604 683.266 392.031C682.87 391.448 682.37 390.99 681.766 390.656C681.172 390.323 680.474 390.156 679.672 390.156C678.88 390.156 678.182 390.323 677.578 390.656C676.984 390.99 676.484 391.448 676.078 392.031C675.682 392.604 675.385 393.266 675.188 394.016C674.99 394.755 674.891 395.542 674.891 396.375ZM693.906 391.703V405H691.016V388.094H693.75L693.906 391.703ZM693.219 395.906L692.016 395.859C692.026 394.703 692.198 393.635 692.531 392.656C692.865 391.667 693.333 390.807 693.938 390.078C694.542 389.349 695.26 388.786 696.094 388.391C696.938 387.984 697.87 387.781 698.891 387.781C699.724 387.781 700.474 387.896 701.141 388.125C701.807 388.344 702.375 388.698 702.844 389.188C703.323 389.677 703.688 390.312 703.938 391.094C704.188 391.865 704.312 392.807 704.312 393.922V405H701.406V393.891C701.406 393.005 701.276 392.297 701.016 391.766C700.755 391.224 700.375 390.833 699.875 390.594C699.375 390.344 698.76 390.219 698.031 390.219C697.312 390.219 696.656 390.37 696.062 390.672C695.479 390.974 694.974 391.391 694.547 391.922C694.13 392.453 693.802 393.062 693.562 393.75C693.333 394.427 693.219 395.146 693.219 395.906ZM715.781 388.094V390.312H706.641V388.094H715.781ZM709.734 383.984H712.625V400.812C712.625 401.385 712.714 401.818 712.891 402.109C713.068 402.401 713.297 402.594 713.578 402.688C713.859 402.781 714.161 402.828 714.484 402.828C714.724 402.828 714.974 402.807 715.234 402.766C715.505 402.714 715.708 402.672 715.844 402.641L715.859 405C715.63 405.073 715.328 405.141 714.953 405.203C714.589 405.276 714.146 405.312 713.625 405.312C712.917 405.312 712.266 405.172 711.672 404.891C711.078 404.609 710.604 404.141 710.25 403.484C709.906 402.818 709.734 401.922 709.734 400.797V383.984ZM722.312 388.094V405H719.406V388.094H722.312ZM719.188 383.609C719.188 383.141 719.328 382.745 719.609 382.422C719.901 382.099 720.328 381.938 720.891 381.938C721.443 381.938 721.865 382.099 722.156 382.422C722.458 382.745 722.609 383.141 722.609 383.609C722.609 384.057 722.458 384.443 722.156 384.766C721.865 385.078 721.443 385.234 720.891 385.234C720.328 385.234 719.901 385.078 719.609 384.766C719.328 384.443 719.188 384.057 719.188 383.609ZM729.844 391.703V405H726.953V388.094H729.688L729.844 391.703ZM729.156 395.906L727.953 395.859C727.964 394.703 728.135 393.635 728.469 392.656C728.802 391.667 729.271 390.807 729.875 390.078C730.479 389.349 731.198 388.786 732.031 388.391C732.875 387.984 733.807 387.781 734.828 387.781C735.661 387.781 736.411 387.896 737.078 388.125C737.745 388.344 738.312 388.698 738.781 389.188C739.26 389.677 739.625 390.312 739.875 391.094C740.125 391.865 740.25 392.807 740.25 393.922V405H737.344V393.891C737.344 393.005 737.214 392.297 736.953 391.766C736.693 391.224 736.312 390.833 735.812 390.594C735.312 390.344 734.698 390.219 733.969 390.219C733.25 390.219 732.594 390.37 732 390.672C731.417 390.974 730.911 391.391 730.484 391.922C730.068 392.453 729.74 393.062 729.5 393.75C729.271 394.427 729.156 395.146 729.156 395.906ZM754.984 401.094V388.094H757.891V405H755.125L754.984 401.094ZM755.531 397.531L756.734 397.5C756.734 398.625 756.615 399.667 756.375 400.625C756.146 401.573 755.771 402.396 755.25 403.094C754.729 403.792 754.047 404.339 753.203 404.734C752.359 405.12 751.333 405.312 750.125 405.312C749.302 405.312 748.547 405.193 747.859 404.953C747.182 404.714 746.599 404.344 746.109 403.844C745.62 403.344 745.24 402.693 744.969 401.891C744.708 401.089 744.578 400.125 744.578 399V388.094H747.469V399.031C747.469 399.792 747.552 400.422 747.719 400.922C747.896 401.411 748.13 401.802 748.422 402.094C748.724 402.375 749.057 402.573 749.422 402.688C749.797 402.802 750.182 402.859 750.578 402.859C751.807 402.859 752.781 402.625 753.5 402.156C754.219 401.677 754.734 401.036 755.047 400.234C755.37 399.422 755.531 398.521 755.531 397.531ZM769.312 405.312C768.135 405.312 767.068 405.115 766.109 404.719C765.161 404.312 764.344 403.745 763.656 403.016C762.979 402.286 762.458 401.422 762.094 400.422C761.729 399.422 761.547 398.328 761.547 397.141V396.484C761.547 395.109 761.75 393.885 762.156 392.812C762.562 391.729 763.115 390.812 763.812 390.062C764.51 389.312 765.302 388.745 766.188 388.359C767.073 387.974 767.99 387.781 768.938 387.781C770.146 387.781 771.188 387.99 772.062 388.406C772.948 388.823 773.672 389.406 774.234 390.156C774.797 390.896 775.214 391.771 775.484 392.781C775.755 393.781 775.891 394.875 775.891 396.062V397.359H763.266V395H773V394.781C772.958 394.031 772.802 393.302 772.531 392.594C772.271 391.885 771.854 391.302 771.281 390.844C770.708 390.385 769.927 390.156 768.938 390.156C768.281 390.156 767.677 390.297 767.125 390.578C766.573 390.849 766.099 391.255 765.703 391.797C765.307 392.339 765 393 764.781 393.781C764.562 394.562 764.453 395.464 764.453 396.484V397.141C764.453 397.943 764.562 398.698 764.781 399.406C765.01 400.104 765.339 400.719 765.766 401.25C766.203 401.781 766.729 402.198 767.344 402.5C767.969 402.802 768.677 402.953 769.469 402.953C770.49 402.953 771.354 402.745 772.062 402.328C772.771 401.911 773.391 401.354 773.922 400.656L775.672 402.047C775.307 402.599 774.844 403.125 774.281 403.625C773.719 404.125 773.026 404.531 772.203 404.844C771.391 405.156 770.427 405.312 769.312 405.312ZM797.547 401.094V388.094H800.453V405H797.688L797.547 401.094ZM798.094 397.531L799.297 397.5C799.297 398.625 799.177 399.667 798.938 400.625C798.708 401.573 798.333 402.396 797.812 403.094C797.292 403.792 796.609 404.339 795.766 404.734C794.922 405.12 793.896 405.312 792.688 405.312C791.865 405.312 791.109 405.193 790.422 404.953C789.745 404.714 789.161 404.344 788.672 403.844C788.182 403.344 787.802 402.693 787.531 401.891C787.271 401.089 787.141 400.125 787.141 399V388.094H790.031V399.031C790.031 399.792 790.115 400.422 790.281 400.922C790.458 401.411 790.693 401.802 790.984 402.094C791.286 402.375 791.62 402.573 791.984 402.688C792.359 402.802 792.745 402.859 793.141 402.859C794.37 402.859 795.344 402.625 796.062 402.156C796.781 401.677 797.297 401.036 797.609 400.234C797.932 399.422 798.094 398.521 798.094 397.531ZM814.703 400.516C814.703 400.099 814.609 399.714 814.422 399.359C814.245 398.995 813.875 398.667 813.312 398.375C812.76 398.073 811.927 397.812 810.812 397.594C809.875 397.396 809.026 397.161 808.266 396.891C807.516 396.62 806.875 396.292 806.344 395.906C805.823 395.521 805.422 395.068 805.141 394.547C804.859 394.026 804.719 393.417 804.719 392.719C804.719 392.052 804.865 391.422 805.156 390.828C805.458 390.234 805.88 389.708 806.422 389.25C806.974 388.792 807.635 388.432 808.406 388.172C809.177 387.911 810.036 387.781 810.984 387.781C812.339 387.781 813.495 388.021 814.453 388.5C815.411 388.979 816.146 389.62 816.656 390.422C817.167 391.214 817.422 392.094 817.422 393.062H814.531C814.531 392.594 814.391 392.141 814.109 391.703C813.839 391.255 813.438 390.885 812.906 390.594C812.385 390.302 811.745 390.156 810.984 390.156C810.182 390.156 809.531 390.281 809.031 390.531C808.542 390.771 808.182 391.078 807.953 391.453C807.734 391.828 807.625 392.224 807.625 392.641C807.625 392.953 807.677 393.234 807.781 393.484C807.896 393.724 808.094 393.948 808.375 394.156C808.656 394.354 809.052 394.542 809.562 394.719C810.073 394.896 810.724 395.073 811.516 395.25C812.901 395.562 814.042 395.938 814.938 396.375C815.833 396.812 816.5 397.349 816.938 397.984C817.375 398.62 817.594 399.391 817.594 400.297C817.594 401.036 817.438 401.714 817.125 402.328C816.823 402.943 816.38 403.474 815.797 403.922C815.224 404.359 814.536 404.703 813.734 404.953C812.943 405.193 812.052 405.312 811.062 405.312C809.573 405.312 808.312 405.047 807.281 404.516C806.25 403.984 805.469 403.297 804.938 402.453C804.406 401.609 804.141 400.719 804.141 399.781H807.047C807.089 400.573 807.318 401.203 807.734 401.672C808.151 402.13 808.661 402.458 809.266 402.656C809.87 402.844 810.469 402.938 811.062 402.938C811.854 402.938 812.516 402.833 813.047 402.625C813.589 402.417 814 402.13 814.281 401.766C814.562 401.401 814.703 400.984 814.703 400.516ZM824.531 388.094V405H821.625V388.094H824.531ZM821.406 383.609C821.406 383.141 821.547 382.745 821.828 382.422C822.12 382.099 822.547 381.938 823.109 381.938C823.661 381.938 824.083 382.099 824.375 382.422C824.677 382.745 824.828 383.141 824.828 383.609C824.828 384.057 824.677 384.443 824.375 384.766C824.083 385.078 823.661 385.234 823.109 385.234C822.547 385.234 822.12 385.078 821.828 384.766C821.547 384.443 821.406 384.057 821.406 383.609ZM832.062 391.703V405H829.172V388.094H831.906L832.062 391.703ZM831.375 395.906L830.172 395.859C830.182 394.703 830.354 393.635 830.688 392.656C831.021 391.667 831.49 390.807 832.094 390.078C832.698 389.349 833.417 388.786 834.25 388.391C835.094 387.984 836.026 387.781 837.047 387.781C837.88 387.781 838.63 387.896 839.297 388.125C839.964 388.344 840.531 388.698 841 389.188C841.479 389.677 841.844 390.312 842.094 391.094C842.344 391.865 842.469 392.807 842.469 393.922V405H839.562V393.891C839.562 393.005 839.432 392.297 839.172 391.766C838.911 391.224 838.531 390.833 838.031 390.594C837.531 390.344 836.917 390.219 836.188 390.219C835.469 390.219 834.812 390.37 834.219 390.672C833.635 390.974 833.13 391.391 832.703 391.922C832.286 392.453 831.958 393.062 831.719 393.75C831.49 394.427 831.375 395.146 831.375 395.906ZM857.812 388.094H860.438V404.641C860.438 406.13 860.135 407.401 859.531 408.453C858.927 409.505 858.083 410.302 857 410.844C855.927 411.396 854.688 411.672 853.281 411.672C852.698 411.672 852.01 411.578 851.219 411.391C850.438 411.214 849.667 410.906 848.906 410.469C848.156 410.042 847.526 409.464 847.016 408.734L848.531 407.016C849.24 407.87 849.979 408.464 850.75 408.797C851.531 409.13 852.302 409.297 853.062 409.297C853.979 409.297 854.771 409.125 855.438 408.781C856.104 408.438 856.62 407.927 856.984 407.25C857.359 406.583 857.547 405.76 857.547 404.781V391.812L857.812 388.094ZM846.172 396.734V396.406C846.172 395.115 846.323 393.943 846.625 392.891C846.938 391.828 847.38 390.917 847.953 390.156C848.536 389.396 849.24 388.812 850.062 388.406C850.885 387.99 851.812 387.781 852.844 387.781C853.906 387.781 854.833 387.969 855.625 388.344C856.427 388.708 857.104 389.245 857.656 389.953C858.219 390.651 858.661 391.495 858.984 392.484C859.307 393.474 859.531 394.594 859.656 395.844V397.281C859.542 398.521 859.318 399.635 858.984 400.625C858.661 401.615 858.219 402.458 857.656 403.156C857.104 403.854 856.427 404.391 855.625 404.766C854.823 405.13 853.885 405.312 852.812 405.312C851.802 405.312 850.885 405.099 850.062 404.672C849.25 404.245 848.552 403.646 847.969 402.875C847.385 402.104 846.938 401.198 846.625 400.156C846.323 399.104 846.172 397.964 846.172 396.734ZM849.062 396.406V396.734C849.062 397.578 849.146 398.37 849.312 399.109C849.49 399.849 849.755 400.5 850.109 401.062C850.474 401.625 850.938 402.068 851.5 402.391C852.062 402.703 852.734 402.859 853.516 402.859C854.474 402.859 855.266 402.656 855.891 402.25C856.516 401.844 857.01 401.307 857.375 400.641C857.75 399.974 858.042 399.25 858.25 398.469V394.703C858.135 394.13 857.958 393.578 857.719 393.047C857.49 392.505 857.188 392.026 856.812 391.609C856.448 391.182 855.995 390.844 855.453 390.594C854.911 390.344 854.276 390.219 853.547 390.219C852.755 390.219 852.073 390.385 851.5 390.719C850.938 391.042 850.474 391.49 850.109 392.062C849.755 392.625 849.49 393.281 849.312 394.031C849.146 394.771 849.062 395.562 849.062 396.406ZM873.203 382.25H880.734C882.443 382.25 883.885 382.51 885.062 383.031C886.25 383.552 887.151 384.323 887.766 385.344C888.391 386.354 888.703 387.599 888.703 389.078C888.703 390.12 888.49 391.073 888.062 391.938C887.646 392.792 887.042 393.521 886.25 394.125C885.469 394.719 884.531 395.161 883.438 395.453L882.594 395.781H875.516L875.484 393.328H880.828C881.911 393.328 882.812 393.141 883.531 392.766C884.25 392.38 884.792 391.865 885.156 391.219C885.521 390.573 885.703 389.859 885.703 389.078C885.703 388.203 885.531 387.438 885.188 386.781C884.844 386.125 884.302 385.62 883.562 385.266C882.833 384.901 881.891 384.719 880.734 384.719H876.219V405H873.203V382.25ZM886.5 405L880.969 394.688L884.109 394.672L889.719 404.812V405H886.5ZM899.5 405.312C898.323 405.312 897.255 405.115 896.297 404.719C895.349 404.312 894.531 403.745 893.844 403.016C893.167 402.286 892.646 401.422 892.281 400.422C891.917 399.422 891.734 398.328 891.734 397.141V396.484C891.734 395.109 891.938 393.885 892.344 392.812C892.75 391.729 893.302 390.812 894 390.062C894.698 389.312 895.49 388.745 896.375 388.359C897.26 387.974 898.177 387.781 899.125 387.781C900.333 387.781 901.375 387.99 902.25 388.406C903.135 388.823 903.859 389.406 904.422 390.156C904.984 390.896 905.401 391.771 905.672 392.781C905.943 393.781 906.078 394.875 906.078 396.062V397.359H893.453V395H903.188V394.781C903.146 394.031 902.99 393.302 902.719 392.594C902.458 391.885 902.042 391.302 901.469 390.844C900.896 390.385 900.115 390.156 899.125 390.156C898.469 390.156 897.865 390.297 897.312 390.578C896.76 390.849 896.286 391.255 895.891 391.797C895.495 392.339 895.188 393 894.969 393.781C894.75 394.562 894.641 395.464 894.641 396.484V397.141C894.641 397.943 894.75 398.698 894.969 399.406C895.198 400.104 895.526 400.719 895.953 401.25C896.391 401.781 896.917 402.198 897.531 402.5C898.156 402.802 898.865 402.953 899.656 402.953C900.677 402.953 901.542 402.745 902.25 402.328C902.958 401.911 903.578 401.354 904.109 400.656L905.859 402.047C905.495 402.599 905.031 403.125 904.469 403.625C903.906 404.125 903.214 404.531 902.391 404.844C901.578 405.156 900.615 405.312 899.5 405.312ZM912.594 381V405H909.688V381H912.594ZM927.203 402.109V393.406C927.203 392.74 927.068 392.161 926.797 391.672C926.536 391.172 926.141 390.786 925.609 390.516C925.078 390.245 924.422 390.109 923.641 390.109C922.911 390.109 922.271 390.234 921.719 390.484C921.177 390.734 920.75 391.062 920.438 391.469C920.135 391.875 919.984 392.312 919.984 392.781H917.094C917.094 392.177 917.25 391.578 917.562 390.984C917.875 390.391 918.323 389.854 918.906 389.375C919.5 388.885 920.208 388.5 921.031 388.219C921.865 387.927 922.792 387.781 923.812 387.781C925.042 387.781 926.125 387.99 927.062 388.406C928.01 388.823 928.75 389.453 929.281 390.297C929.823 391.13 930.094 392.177 930.094 393.438V401.312C930.094 401.875 930.141 402.474 930.234 403.109C930.339 403.745 930.49 404.292 930.688 404.75V405H927.672C927.526 404.667 927.411 404.224 927.328 403.672C927.245 403.109 927.203 402.589 927.203 402.109ZM927.703 394.75L927.734 396.781H924.812C923.99 396.781 923.255 396.849 922.609 396.984C921.964 397.109 921.422 397.302 920.984 397.562C920.547 397.823 920.214 398.151 919.984 398.547C919.755 398.932 919.641 399.385 919.641 399.906C919.641 400.438 919.76 400.922 920 401.359C920.24 401.797 920.599 402.146 921.078 402.406C921.568 402.656 922.167 402.781 922.875 402.781C923.76 402.781 924.542 402.594 925.219 402.219C925.896 401.844 926.432 401.385 926.828 400.844C927.234 400.302 927.453 399.776 927.484 399.266L928.719 400.656C928.646 401.094 928.448 401.578 928.125 402.109C927.802 402.641 927.37 403.151 926.828 403.641C926.297 404.12 925.661 404.521 924.922 404.844C924.193 405.156 923.37 405.312 922.453 405.312C921.307 405.312 920.302 405.089 919.438 404.641C918.583 404.193 917.917 403.594 917.438 402.844C916.969 402.083 916.734 401.234 916.734 400.297C916.734 399.391 916.911 398.594 917.266 397.906C917.62 397.208 918.13 396.63 918.797 396.172C919.464 395.703 920.266 395.349 921.203 395.109C922.141 394.87 923.188 394.75 924.344 394.75H927.703ZM941.719 388.094V390.312H932.578V388.094H941.719ZM935.672 383.984H938.562V400.812C938.562 401.385 938.651 401.818 938.828 402.109C939.005 402.401 939.234 402.594 939.516 402.688C939.797 402.781 940.099 402.828 940.422 402.828C940.661 402.828 940.911 402.807 941.172 402.766C941.443 402.714 941.646 402.672 941.781 402.641L941.797 405C941.568 405.073 941.266 405.141 940.891 405.203C940.526 405.276 940.083 405.312 939.562 405.312C938.854 405.312 938.203 405.172 937.609 404.891C937.016 404.609 936.542 404.141 936.188 403.484C935.844 402.818 935.672 401.922 935.672 400.797V383.984ZM948.25 388.094V405H945.344V388.094H948.25ZM945.125 383.609C945.125 383.141 945.266 382.745 945.547 382.422C945.839 382.099 946.266 381.938 946.828 381.938C947.38 381.938 947.802 382.099 948.094 382.422C948.396 382.745 948.547 383.141 948.547 383.609C948.547 384.057 948.396 384.443 948.094 384.766C947.802 385.078 947.38 385.234 946.828 385.234C946.266 385.234 945.839 385.078 945.547 384.766C945.266 384.443 945.125 384.057 945.125 383.609ZM958.031 402.391L962.656 388.094H965.609L959.531 405H957.594L958.031 402.391ZM954.172 388.094L958.938 402.469L959.266 405H957.328L951.203 388.094H954.172ZM971.531 388.094V405H968.625V388.094H971.531ZM968.406 383.609C968.406 383.141 968.547 382.745 968.828 382.422C969.12 382.099 969.547 381.938 970.109 381.938C970.661 381.938 971.083 382.099 971.375 382.422C971.677 382.745 971.828 383.141 971.828 383.609C971.828 384.057 971.677 384.443 971.375 384.766C971.083 385.078 970.661 385.234 970.109 385.234C969.547 385.234 969.12 385.078 968.828 384.766C968.547 384.443 968.406 384.057 968.406 383.609ZM983.25 388.094V390.312H974.109V388.094H983.25ZM977.203 383.984H980.094V400.812C980.094 401.385 980.182 401.818 980.359 402.109C980.536 402.401 980.766 402.594 981.047 402.688C981.328 402.781 981.63 402.828 981.953 402.828C982.193 402.828 982.443 402.807 982.703 402.766C982.974 402.714 983.177 402.672 983.312 402.641L983.328 405C983.099 405.073 982.797 405.141 982.422 405.203C982.057 405.276 981.615 405.312 981.094 405.312C980.385 405.312 979.734 405.172 979.141 404.891C978.547 404.609 978.073 404.141 977.719 403.484C977.375 402.818 977.203 401.922 977.203 400.797V383.984ZM991.391 403.25L996.094 388.094H999.188L992.406 407.609C992.25 408.026 992.042 408.474 991.781 408.953C991.531 409.443 991.208 409.906 990.812 410.344C990.417 410.781 989.938 411.135 989.375 411.406C988.823 411.688 988.161 411.828 987.391 411.828C987.161 411.828 986.87 411.797 986.516 411.734C986.161 411.672 985.911 411.62 985.766 411.578L985.75 409.234C985.833 409.245 985.964 409.255 986.141 409.266C986.328 409.286 986.458 409.297 986.531 409.297C987.188 409.297 987.745 409.208 988.203 409.031C988.661 408.865 989.047 408.578 989.359 408.172C989.682 407.776 989.958 407.229 990.188 406.531L991.391 403.25ZM987.938 388.094L992.328 401.219L993.078 404.266L991 405.328L984.781 388.094H987.938ZM1019.75 392.906V394.344C1019.75 396.052 1019.54 397.583 1019.11 398.938C1018.68 400.292 1018.07 401.443 1017.27 402.391C1016.46 403.339 1015.5 404.062 1014.38 404.562C1013.26 405.062 1012.01 405.312 1010.62 405.312C1009.28 405.312 1008.05 405.062 1006.92 404.562C1005.81 404.062 1004.84 403.339 1004.02 402.391C1003.2 401.443 1002.57 400.292 1002.12 398.938C1001.68 397.583 1001.45 396.052 1001.45 394.344V392.906C1001.45 391.198 1001.67 389.672 1002.11 388.328C1002.56 386.974 1003.19 385.823 1004 384.875C1004.81 383.917 1005.78 383.188 1006.89 382.688C1008.02 382.188 1009.25 381.938 1010.59 381.938C1011.98 381.938 1013.23 382.188 1014.34 382.688C1015.47 383.188 1016.43 383.917 1017.23 384.875C1018.05 385.823 1018.67 386.974 1019.09 388.328C1019.53 389.672 1019.75 391.198 1019.75 392.906ZM1016.77 394.344V392.875C1016.77 391.521 1016.62 390.323 1016.34 389.281C1016.07 388.24 1015.67 387.365 1015.14 386.656C1014.61 385.948 1013.96 385.411 1013.19 385.047C1012.43 384.682 1011.56 384.5 1010.59 384.5C1009.66 384.5 1008.81 384.682 1008.05 385.047C1007.3 385.411 1006.65 385.948 1006.11 386.656C1005.58 387.365 1005.17 388.24 1004.88 389.281C1004.58 390.323 1004.44 391.521 1004.44 392.875V394.344C1004.44 395.708 1004.58 396.917 1004.88 397.969C1005.17 399.01 1005.58 399.891 1006.12 400.609C1006.68 401.318 1007.33 401.854 1008.08 402.219C1008.84 402.583 1009.69 402.766 1010.62 402.766C1011.6 402.766 1012.47 402.583 1013.23 402.219C1013.99 401.854 1014.64 401.318 1015.16 400.609C1015.69 399.891 1016.09 399.01 1016.36 397.969C1016.63 396.917 1016.77 395.708 1016.77 394.344ZM1026.72 391.703V405H1023.83V388.094H1026.56L1026.72 391.703ZM1026.03 395.906L1024.83 395.859C1024.84 394.703 1025.01 393.635 1025.34 392.656C1025.68 391.667 1026.15 390.807 1026.75 390.078C1027.35 389.349 1028.07 388.786 1028.91 388.391C1029.75 387.984 1030.68 387.781 1031.7 387.781C1032.54 387.781 1033.29 387.896 1033.95 388.125C1034.62 388.344 1035.19 388.698 1035.66 389.188C1036.14 389.677 1036.5 390.312 1036.75 391.094C1037 391.865 1037.12 392.807 1037.12 393.922V405H1034.22V393.891C1034.22 393.005 1034.09 392.297 1033.83 391.766C1033.57 391.224 1033.19 390.833 1032.69 390.594C1032.19 390.344 1031.57 390.219 1030.84 390.219C1030.12 390.219 1029.47 390.37 1028.88 390.672C1028.29 390.974 1027.79 391.391 1027.36 391.922C1026.94 392.453 1026.61 393.062 1026.38 393.75C1026.15 394.427 1026.03 395.146 1026.03 395.906ZM1048.53 405.312C1047.35 405.312 1046.29 405.115 1045.33 404.719C1044.38 404.312 1043.56 403.745 1042.88 403.016C1042.2 402.286 1041.68 401.422 1041.31 400.422C1040.95 399.422 1040.77 398.328 1040.77 397.141V396.484C1040.77 395.109 1040.97 393.885 1041.38 392.812C1041.78 391.729 1042.33 390.812 1043.03 390.062C1043.73 389.312 1044.52 388.745 1045.41 388.359C1046.29 387.974 1047.21 387.781 1048.16 387.781C1049.36 387.781 1050.41 387.99 1051.28 388.406C1052.17 388.823 1052.89 389.406 1053.45 390.156C1054.02 390.896 1054.43 391.771 1054.7 392.781C1054.97 393.781 1055.11 394.875 1055.11 396.062V397.359H1042.48V395H1052.22V394.781C1052.18 394.031 1052.02 393.302 1051.75 392.594C1051.49 391.885 1051.07 391.302 1050.5 390.844C1049.93 390.385 1049.15 390.156 1048.16 390.156C1047.5 390.156 1046.9 390.297 1046.34 390.578C1045.79 390.849 1045.32 391.255 1044.92 391.797C1044.53 392.339 1044.22 393 1044 393.781C1043.78 394.562 1043.67 395.464 1043.67 396.484V397.141C1043.67 397.943 1043.78 398.698 1044 399.406C1044.23 400.104 1044.56 400.719 1044.98 401.25C1045.42 401.781 1045.95 402.198 1046.56 402.5C1047.19 402.802 1047.9 402.953 1048.69 402.953C1049.71 402.953 1050.57 402.745 1051.28 402.328C1051.99 401.911 1052.61 401.354 1053.14 400.656L1054.89 402.047C1054.53 402.599 1054.06 403.125 1053.5 403.625C1052.94 404.125 1052.24 404.531 1051.42 404.844C1050.61 405.156 1049.65 405.312 1048.53 405.312ZM1078.98 399.25C1078.98 398.719 1078.9 398.25 1078.73 397.844C1078.58 397.427 1078.3 397.052 1077.89 396.719C1077.49 396.385 1076.94 396.068 1076.23 395.766C1075.54 395.464 1074.65 395.156 1073.58 394.844C1072.45 394.51 1071.44 394.141 1070.53 393.734C1069.62 393.318 1068.85 392.844 1068.2 392.312C1067.56 391.781 1067.06 391.172 1066.72 390.484C1066.38 389.797 1066.2 389.01 1066.2 388.125C1066.2 387.24 1066.39 386.422 1066.75 385.672C1067.11 384.922 1067.64 384.271 1068.31 383.719C1069 383.156 1069.82 382.719 1070.77 382.406C1071.71 382.094 1072.77 381.938 1073.94 381.938C1075.65 381.938 1077.09 382.266 1078.28 382.922C1079.48 383.568 1080.39 384.417 1081.02 385.469C1081.64 386.51 1081.95 387.625 1081.95 388.812H1078.95C1078.95 387.958 1078.77 387.203 1078.41 386.547C1078.04 385.88 1077.49 385.359 1076.75 384.984C1076.01 384.599 1075.07 384.406 1073.94 384.406C1072.86 384.406 1071.98 384.568 1071.28 384.891C1070.58 385.214 1070.06 385.651 1069.72 386.203C1069.39 386.755 1069.22 387.385 1069.22 388.094C1069.22 388.573 1069.32 389.01 1069.52 389.406C1069.72 389.792 1070.04 390.151 1070.47 390.484C1070.91 390.818 1071.46 391.125 1072.12 391.406C1072.8 391.688 1073.61 391.958 1074.55 392.219C1075.84 392.583 1076.95 392.99 1077.89 393.438C1078.83 393.885 1079.6 394.391 1080.2 394.953C1080.82 395.505 1081.27 396.135 1081.56 396.844C1081.86 397.542 1082.02 398.333 1082.02 399.219C1082.02 400.146 1081.83 400.984 1081.45 401.734C1081.08 402.484 1080.54 403.125 1079.84 403.656C1079.15 404.188 1078.31 404.599 1077.33 404.891C1076.36 405.172 1075.28 405.312 1074.08 405.312C1073.03 405.312 1071.99 405.167 1070.97 404.875C1069.96 404.583 1069.04 404.146 1068.2 403.562C1067.38 402.979 1066.72 402.26 1066.22 401.406C1065.73 400.542 1065.48 399.542 1065.48 398.406H1068.48C1068.48 399.188 1068.64 399.859 1068.94 400.422C1069.24 400.974 1069.65 401.432 1070.17 401.797C1070.7 402.161 1071.3 402.432 1071.97 402.609C1072.65 402.776 1073.35 402.859 1074.08 402.859C1075.13 402.859 1076.02 402.714 1076.75 402.422C1077.48 402.13 1078.03 401.714 1078.41 401.172C1078.79 400.63 1078.98 399.99 1078.98 399.25ZM1092.5 388.094V390.312H1083.36V388.094H1092.5ZM1086.45 383.984H1089.34V400.812C1089.34 401.385 1089.43 401.818 1089.61 402.109C1089.79 402.401 1090.02 402.594 1090.3 402.688C1090.58 402.781 1090.88 402.828 1091.2 402.828C1091.44 402.828 1091.69 402.807 1091.95 402.766C1092.22 402.714 1092.43 402.672 1092.56 402.641L1092.58 405C1092.35 405.073 1092.05 405.141 1091.67 405.203C1091.31 405.276 1090.86 405.312 1090.34 405.312C1089.64 405.312 1088.98 405.172 1088.39 404.891C1087.8 404.609 1087.32 404.141 1086.97 403.484C1086.62 402.818 1086.45 401.922 1086.45 400.797V383.984ZM1105.86 402.109V393.406C1105.86 392.74 1105.72 392.161 1105.45 391.672C1105.19 391.172 1104.8 390.786 1104.27 390.516C1103.73 390.245 1103.08 390.109 1102.3 390.109C1101.57 390.109 1100.93 390.234 1100.38 390.484C1099.83 390.734 1099.41 391.062 1099.09 391.469C1098.79 391.875 1098.64 392.312 1098.64 392.781H1095.75C1095.75 392.177 1095.91 391.578 1096.22 390.984C1096.53 390.391 1096.98 389.854 1097.56 389.375C1098.16 388.885 1098.86 388.5 1099.69 388.219C1100.52 387.927 1101.45 387.781 1102.47 387.781C1103.7 387.781 1104.78 387.99 1105.72 388.406C1106.67 388.823 1107.41 389.453 1107.94 390.297C1108.48 391.13 1108.75 392.177 1108.75 393.438V401.312C1108.75 401.875 1108.8 402.474 1108.89 403.109C1108.99 403.745 1109.15 404.292 1109.34 404.75V405H1106.33C1106.18 404.667 1106.07 404.224 1105.98 403.672C1105.9 403.109 1105.86 402.589 1105.86 402.109ZM1106.36 394.75L1106.39 396.781H1103.47C1102.65 396.781 1101.91 396.849 1101.27 396.984C1100.62 397.109 1100.08 397.302 1099.64 397.562C1099.2 397.823 1098.87 398.151 1098.64 398.547C1098.41 398.932 1098.3 399.385 1098.3 399.906C1098.3 400.438 1098.42 400.922 1098.66 401.359C1098.9 401.797 1099.26 402.146 1099.73 402.406C1100.22 402.656 1100.82 402.781 1101.53 402.781C1102.42 402.781 1103.2 402.594 1103.88 402.219C1104.55 401.844 1105.09 401.385 1105.48 400.844C1105.89 400.302 1106.11 399.776 1106.14 399.266L1107.38 400.656C1107.3 401.094 1107.1 401.578 1106.78 402.109C1106.46 402.641 1106.03 403.151 1105.48 403.641C1104.95 404.12 1104.32 404.521 1103.58 404.844C1102.85 405.156 1102.03 405.312 1101.11 405.312C1099.96 405.312 1098.96 405.089 1098.09 404.641C1097.24 404.193 1096.57 403.594 1096.09 402.844C1095.62 402.083 1095.39 401.234 1095.39 400.297C1095.39 399.391 1095.57 398.594 1095.92 397.906C1096.28 397.208 1096.79 396.63 1097.45 396.172C1098.12 395.703 1098.92 395.349 1099.86 395.109C1100.8 394.87 1101.84 394.75 1103 394.75H1106.36ZM1124.25 388.094H1126.88V404.641C1126.88 406.13 1126.57 407.401 1125.97 408.453C1125.36 409.505 1124.52 410.302 1123.44 410.844C1122.36 411.396 1121.12 411.672 1119.72 411.672C1119.14 411.672 1118.45 411.578 1117.66 411.391C1116.88 411.214 1116.1 410.906 1115.34 410.469C1114.59 410.042 1113.96 409.464 1113.45 408.734L1114.97 407.016C1115.68 407.87 1116.42 408.464 1117.19 408.797C1117.97 409.13 1118.74 409.297 1119.5 409.297C1120.42 409.297 1121.21 409.125 1121.88 408.781C1122.54 408.438 1123.06 407.927 1123.42 407.25C1123.8 406.583 1123.98 405.76 1123.98 404.781V391.812L1124.25 388.094ZM1112.61 396.734V396.406C1112.61 395.115 1112.76 393.943 1113.06 392.891C1113.38 391.828 1113.82 390.917 1114.39 390.156C1114.97 389.396 1115.68 388.812 1116.5 388.406C1117.32 387.99 1118.25 387.781 1119.28 387.781C1120.34 387.781 1121.27 387.969 1122.06 388.344C1122.86 388.708 1123.54 389.245 1124.09 389.953C1124.66 390.651 1125.1 391.495 1125.42 392.484C1125.74 393.474 1125.97 394.594 1126.09 395.844V397.281C1125.98 398.521 1125.76 399.635 1125.42 400.625C1125.1 401.615 1124.66 402.458 1124.09 403.156C1123.54 403.854 1122.86 404.391 1122.06 404.766C1121.26 405.13 1120.32 405.312 1119.25 405.312C1118.24 405.312 1117.32 405.099 1116.5 404.672C1115.69 404.245 1114.99 403.646 1114.41 402.875C1113.82 402.104 1113.38 401.198 1113.06 400.156C1112.76 399.104 1112.61 397.964 1112.61 396.734ZM1115.5 396.406V396.734C1115.5 397.578 1115.58 398.37 1115.75 399.109C1115.93 399.849 1116.19 400.5 1116.55 401.062C1116.91 401.625 1117.38 402.068 1117.94 402.391C1118.5 402.703 1119.17 402.859 1119.95 402.859C1120.91 402.859 1121.7 402.656 1122.33 402.25C1122.95 401.844 1123.45 401.307 1123.81 400.641C1124.19 399.974 1124.48 399.25 1124.69 398.469V394.703C1124.57 394.13 1124.4 393.578 1124.16 393.047C1123.93 392.505 1123.62 392.026 1123.25 391.609C1122.89 391.182 1122.43 390.844 1121.89 390.594C1121.35 390.344 1120.71 390.219 1119.98 390.219C1119.19 390.219 1118.51 390.385 1117.94 390.719C1117.38 391.042 1116.91 391.49 1116.55 392.062C1116.19 392.625 1115.93 393.281 1115.75 394.031C1115.58 394.771 1115.5 395.562 1115.5 396.406ZM1134.41 388.094V405H1131.5V388.094H1134.41ZM1131.28 383.609C1131.28 383.141 1131.42 382.745 1131.7 382.422C1131.99 382.099 1132.42 381.938 1132.98 381.938C1133.54 381.938 1133.96 382.099 1134.25 382.422C1134.55 382.745 1134.7 383.141 1134.7 383.609C1134.7 384.057 1134.55 384.443 1134.25 384.766C1133.96 385.078 1133.54 385.234 1132.98 385.234C1132.42 385.234 1131.99 385.078 1131.7 384.766C1131.42 384.443 1131.28 384.057 1131.28 383.609ZM1141.94 391.703V405H1139.05V388.094H1141.78L1141.94 391.703ZM1141.25 395.906L1140.05 395.859C1140.06 394.703 1140.23 393.635 1140.56 392.656C1140.9 391.667 1141.36 390.807 1141.97 390.078C1142.57 389.349 1143.29 388.786 1144.12 388.391C1144.97 387.984 1145.9 387.781 1146.92 387.781C1147.76 387.781 1148.51 387.896 1149.17 388.125C1149.84 388.344 1150.41 388.698 1150.88 389.188C1151.35 389.677 1151.72 390.312 1151.97 391.094C1152.22 391.865 1152.34 392.807 1152.34 393.922V405H1149.44V393.891C1149.44 393.005 1149.31 392.297 1149.05 391.766C1148.79 391.224 1148.41 390.833 1147.91 390.594C1147.41 390.344 1146.79 390.219 1146.06 390.219C1145.34 390.219 1144.69 390.37 1144.09 390.672C1143.51 390.974 1143.01 391.391 1142.58 391.922C1142.16 392.453 1141.83 393.062 1141.59 393.75C1141.36 394.427 1141.25 395.146 1141.25 395.906ZM1167.69 388.094H1170.31V404.641C1170.31 406.13 1170.01 407.401 1169.41 408.453C1168.8 409.505 1167.96 410.302 1166.88 410.844C1165.8 411.396 1164.56 411.672 1163.16 411.672C1162.57 411.672 1161.89 411.578 1161.09 411.391C1160.31 411.214 1159.54 410.906 1158.78 410.469C1158.03 410.042 1157.4 409.464 1156.89 408.734L1158.41 407.016C1159.11 407.87 1159.85 408.464 1160.62 408.797C1161.41 409.13 1162.18 409.297 1162.94 409.297C1163.85 409.297 1164.65 409.125 1165.31 408.781C1165.98 408.438 1166.49 407.927 1166.86 407.25C1167.23 406.583 1167.42 405.76 1167.42 404.781V391.812L1167.69 388.094ZM1156.05 396.734V396.406C1156.05 395.115 1156.2 393.943 1156.5 392.891C1156.81 391.828 1157.26 390.917 1157.83 390.156C1158.41 389.396 1159.11 388.812 1159.94 388.406C1160.76 387.99 1161.69 387.781 1162.72 387.781C1163.78 387.781 1164.71 387.969 1165.5 388.344C1166.3 388.708 1166.98 389.245 1167.53 389.953C1168.09 390.651 1168.54 391.495 1168.86 392.484C1169.18 393.474 1169.41 394.594 1169.53 395.844V397.281C1169.42 398.521 1169.19 399.635 1168.86 400.625C1168.54 401.615 1168.09 402.458 1167.53 403.156C1166.98 403.854 1166.3 404.391 1165.5 404.766C1164.7 405.13 1163.76 405.312 1162.69 405.312C1161.68 405.312 1160.76 405.099 1159.94 404.672C1159.12 404.245 1158.43 403.646 1157.84 402.875C1157.26 402.104 1156.81 401.198 1156.5 400.156C1156.2 399.104 1156.05 397.964 1156.05 396.734ZM1158.94 396.406V396.734C1158.94 397.578 1159.02 398.37 1159.19 399.109C1159.36 399.849 1159.63 400.5 1159.98 401.062C1160.35 401.625 1160.81 402.068 1161.38 402.391C1161.94 402.703 1162.61 402.859 1163.39 402.859C1164.35 402.859 1165.14 402.656 1165.77 402.25C1166.39 401.844 1166.89 401.307 1167.25 400.641C1167.62 399.974 1167.92 399.25 1168.12 398.469V394.703C1168.01 394.13 1167.83 393.578 1167.59 393.047C1167.36 392.505 1167.06 392.026 1166.69 391.609C1166.32 391.182 1165.87 390.844 1165.33 390.594C1164.79 390.344 1164.15 390.219 1163.42 390.219C1162.63 390.219 1161.95 390.385 1161.38 390.719C1160.81 391.042 1160.35 391.49 1159.98 392.062C1159.63 392.625 1159.36 393.281 1159.19 394.031C1159.02 394.771 1158.94 395.562 1158.94 396.406ZM1197.53 402.547V405H1185.48V402.547H1197.53ZM1186.09 382.25V405H1183.08V382.25H1186.09ZM1195.94 392.031V394.484H1185.48V392.031H1195.94ZM1197.38 382.25V384.719H1185.48V382.25H1197.38ZM1202.78 388.094L1206.48 394.25L1210.23 388.094H1213.62L1208.09 396.438L1213.8 405H1210.45L1206.55 398.656L1202.64 405H1199.28L1204.97 396.438L1199.45 388.094H1202.78ZM1219.59 391.344V411.5H1216.69V388.094H1219.34L1219.59 391.344ZM1230.98 396.406V396.734C1230.98 397.964 1230.84 399.104 1230.55 400.156C1230.26 401.198 1229.83 402.104 1229.27 402.875C1228.71 403.646 1228.03 404.245 1227.22 404.672C1226.41 405.099 1225.47 405.312 1224.42 405.312C1223.35 405.312 1222.4 405.135 1221.58 404.781C1220.76 404.427 1220.06 403.911 1219.48 403.234C1218.91 402.557 1218.45 401.745 1218.11 400.797C1217.78 399.849 1217.55 398.781 1217.42 397.594V395.844C1217.55 394.594 1217.78 393.474 1218.12 392.484C1218.47 391.495 1218.92 390.651 1219.48 389.953C1220.06 389.245 1220.75 388.708 1221.56 388.344C1222.38 387.969 1223.31 387.781 1224.38 387.781C1225.44 387.781 1226.38 387.99 1227.2 388.406C1228.03 388.812 1228.72 389.396 1229.28 390.156C1229.84 390.917 1230.27 391.828 1230.55 392.891C1230.84 393.943 1230.98 395.115 1230.98 396.406ZM1228.08 396.734V396.406C1228.08 395.562 1227.99 394.771 1227.81 394.031C1227.64 393.281 1227.36 392.625 1226.98 392.062C1226.62 391.49 1226.15 391.042 1225.58 390.719C1225.01 390.385 1224.32 390.219 1223.53 390.219C1222.8 390.219 1222.17 390.344 1221.62 390.594C1221.09 390.844 1220.64 391.182 1220.27 391.609C1219.89 392.026 1219.58 392.505 1219.34 393.047C1219.11 393.578 1218.94 394.13 1218.83 394.703V398.75C1219.04 399.479 1219.33 400.167 1219.7 400.812C1220.08 401.448 1220.58 401.964 1221.2 402.359C1221.83 402.745 1222.61 402.938 1223.56 402.938C1224.34 402.938 1225.02 402.776 1225.58 402.453C1226.15 402.12 1226.62 401.667 1226.98 401.094C1227.36 400.521 1227.64 399.865 1227.81 399.125C1227.99 398.375 1228.08 397.578 1228.08 396.734ZM1237.81 381V405H1234.91V381H1237.81ZM1241.69 396.734V396.375C1241.69 395.156 1241.86 394.026 1242.22 392.984C1242.57 391.932 1243.08 391.021 1243.75 390.25C1244.42 389.469 1245.22 388.865 1246.17 388.438C1247.12 388 1248.18 387.781 1249.36 387.781C1250.55 387.781 1251.61 388 1252.56 388.438C1253.52 388.865 1254.33 389.469 1255 390.25C1255.68 391.021 1256.19 391.932 1256.55 392.984C1256.9 394.026 1257.08 395.156 1257.08 396.375V396.734C1257.08 397.953 1256.9 399.083 1256.55 400.125C1256.19 401.167 1255.68 402.078 1255 402.859C1254.33 403.63 1253.53 404.234 1252.58 404.672C1251.64 405.099 1250.58 405.312 1249.39 405.312C1248.2 405.312 1247.14 405.099 1246.19 404.672C1245.24 404.234 1244.43 403.63 1243.75 402.859C1243.08 402.078 1242.57 401.167 1242.22 400.125C1241.86 399.083 1241.69 397.953 1241.69 396.734ZM1244.58 396.375V396.734C1244.58 397.578 1244.68 398.375 1244.88 399.125C1245.07 399.865 1245.37 400.521 1245.77 401.094C1246.17 401.667 1246.68 402.12 1247.28 402.453C1247.89 402.776 1248.59 402.938 1249.39 402.938C1250.18 402.938 1250.88 402.776 1251.47 402.453C1252.07 402.12 1252.57 401.667 1252.97 401.094C1253.36 400.521 1253.66 399.865 1253.86 399.125C1254.07 398.375 1254.17 397.578 1254.17 396.734V396.375C1254.17 395.542 1254.07 394.755 1253.86 394.016C1253.66 393.266 1253.36 392.604 1252.95 392.031C1252.56 391.448 1252.06 390.99 1251.45 390.656C1250.86 390.323 1250.16 390.156 1249.36 390.156C1248.57 390.156 1247.87 390.323 1247.27 390.656C1246.67 390.99 1246.17 391.448 1245.77 392.031C1245.37 392.604 1245.07 393.266 1244.88 394.016C1244.68 394.755 1244.58 395.542 1244.58 396.375ZM1263.59 390.75V405H1260.7V388.094H1263.52L1263.59 390.75ZM1268.88 388L1268.86 390.688C1268.62 390.635 1268.39 390.604 1268.17 390.594C1267.96 390.573 1267.72 390.562 1267.45 390.562C1266.79 390.562 1266.2 390.667 1265.69 390.875C1265.18 391.083 1264.74 391.375 1264.39 391.75C1264.04 392.125 1263.76 392.573 1263.55 393.094C1263.35 393.604 1263.22 394.167 1263.16 394.781L1262.34 395.25C1262.34 394.229 1262.44 393.271 1262.64 392.375C1262.85 391.479 1263.17 390.688 1263.59 390C1264.02 389.302 1264.56 388.76 1265.22 388.375C1265.89 387.979 1266.68 387.781 1267.59 387.781C1267.8 387.781 1268.04 387.807 1268.31 387.859C1268.58 387.901 1268.77 387.948 1268.88 388ZM1278.25 405.312C1277.07 405.312 1276.01 405.115 1275.05 404.719C1274.1 404.312 1273.28 403.745 1272.59 403.016C1271.92 402.286 1271.4 401.422 1271.03 400.422C1270.67 399.422 1270.48 398.328 1270.48 397.141V396.484C1270.48 395.109 1270.69 393.885 1271.09 392.812C1271.5 391.729 1272.05 390.812 1272.75 390.062C1273.45 389.312 1274.24 388.745 1275.12 388.359C1276.01 387.974 1276.93 387.781 1277.88 387.781C1279.08 387.781 1280.12 387.99 1281 388.406C1281.89 388.823 1282.61 389.406 1283.17 390.156C1283.73 390.896 1284.15 391.771 1284.42 392.781C1284.69 393.781 1284.83 394.875 1284.83 396.062V397.359H1272.2V395H1281.94V394.781C1281.9 394.031 1281.74 393.302 1281.47 392.594C1281.21 391.885 1280.79 391.302 1280.22 390.844C1279.65 390.385 1278.86 390.156 1277.88 390.156C1277.22 390.156 1276.61 390.297 1276.06 390.578C1275.51 390.849 1275.04 391.255 1274.64 391.797C1274.24 392.339 1273.94 393 1273.72 393.781C1273.5 394.562 1273.39 395.464 1273.39 396.484V397.141C1273.39 397.943 1273.5 398.698 1273.72 399.406C1273.95 400.104 1274.28 400.719 1274.7 401.25C1275.14 401.781 1275.67 402.198 1276.28 402.5C1276.91 402.802 1277.61 402.953 1278.41 402.953C1279.43 402.953 1280.29 402.745 1281 402.328C1281.71 401.911 1282.33 401.354 1282.86 400.656L1284.61 402.047C1284.24 402.599 1283.78 403.125 1283.22 403.625C1282.66 404.125 1281.96 404.531 1281.14 404.844C1280.33 405.156 1279.36 405.312 1278.25 405.312ZM1291.09 390.75V405H1288.2V388.094H1291.02L1291.09 390.75ZM1296.38 388L1296.36 390.688C1296.12 390.635 1295.89 390.604 1295.67 390.594C1295.46 390.573 1295.22 390.562 1294.95 390.562C1294.29 390.562 1293.7 390.667 1293.19 390.875C1292.68 391.083 1292.24 391.375 1291.89 391.75C1291.54 392.125 1291.26 392.573 1291.05 393.094C1290.85 393.604 1290.72 394.167 1290.66 394.781L1289.84 395.25C1289.84 394.229 1289.94 393.271 1290.14 392.375C1290.35 391.479 1290.67 390.688 1291.09 390C1291.52 389.302 1292.06 388.76 1292.72 388.375C1293.39 387.979 1294.18 387.781 1295.09 387.781C1295.3 387.781 1295.54 387.807 1295.81 387.859C1296.08 387.901 1296.27 387.948 1296.38 388ZM1297.16 403.469C1297.16 402.979 1297.31 402.568 1297.61 402.234C1297.92 401.891 1298.37 401.719 1298.95 401.719C1299.54 401.719 1299.98 401.891 1300.28 402.234C1300.59 402.568 1300.75 402.979 1300.75 403.469C1300.75 403.948 1300.59 404.354 1300.28 404.688C1299.98 405.021 1299.54 405.188 1298.95 405.188C1298.37 405.188 1297.92 405.021 1297.61 404.688C1297.31 404.354 1297.16 403.948 1297.16 403.469Z" fill="#3D454E"/>
<circle cx="756" cy="595" r="100" fill="#D1F7E2"/>
<path d="M784.75 571.037L751.208 616.558L727.25 597.391" stroke="#1F8B51" stroke-width="3" stroke-linecap="round" stroke-linejoin="round"/>
<path d="M756 650.099C786.433 650.099 811.104 625.428 811.104 594.995C811.104 564.562 786.433 539.891 756 539.891C725.567 539.891 700.896 564.562 700.896 594.995C700.896 625.428 725.567 650.099 756 650.099Z" stroke="#1F8B51" stroke-width="3" stroke-linecap="round" stroke-linejoin="round"/>
</svg>
